<svg xmlns="http://www.w3.org/2000/svg" xmlns:xlink="http://www.w3.org/1999/xlink" viewBox="0 0 52.65 55.46"><defs><style>.cls-1{fill:url(#linear-gradient);}.cls-2{fill:#fff;}</style><linearGradient id="linear-gradient" y1="27.73" x2="52.65" y2="27.73" gradientUnits="userSpaceOnUse"><stop offset="0" stop-color="#022440"/><stop offset="0.34" stop-color="#02223d"/><stop offset="0.6" stop-color="#011a34"/><stop offset="0.82" stop-color="#010e24"/><stop offset="1" stop-color="#001"/></linearGradient></defs><g id="Layer_2" data-name="Layer 2"><g id="Layer_1-2" data-name="Layer 1"><path class="cls-1" d="M52.65,52.91A138.49,138.49,0,0,1,.13,53c-.41-4.27,0-8.24,3.1-11.36a13.23,13.23,0,0,1,5.2-3.19c2.32-.78,2.53-1.06,2.85-3.52a122.66,122.66,0,0,0,.63-17,21.66,21.66,0,0,1,2.62-11.1,9.65,9.65,0,0,1,5.21-4.66C20.83,1.72,21.79,1,22.89.59c5.73-2,12.34,1.12,14.87,6.81a27.73,27.73,0,0,1,2.13,9.94c.22,4.25.24,8.51.5,12.76.14,2.29.59,4.57,1,6.85a1.22,1.22,0,0,0,.65.85,37.77,37.77,0,0,1,5.06,2.28c3.08,1.42,4.34,3.94,5.06,6.83A36,36,0,0,1,52.65,52.91ZM16.51,18a1.37,1.37,0,0,1-.3-.12c-1.14-.59-1.31-.45-1.41.86a3.89,3.89,0,0,0,1.8,3.64,2.78,2.78,0,0,1,1,1.44,14.76,14.76,0,0,0,5,7.94c2.47,2.09,5.08,2.18,7.57.15s3.67-5.12,4.71-8.15a3.14,3.14,0,0,1,1-1.41,3.8,3.8,0,0,0,1.73-3.78c-.13-1.13-.4-1.29-1.37-.73a4.36,4.36,0,0,1-5.56-.32c-1.39-1.17-2.59-2.57-3.87-3.86a36.9,36.9,0,0,0-3.27-3.23C21,8.5,19,9.09,17.68,11.91a4,4,0,0,0-.37.92C17,14.55,16.77,16.27,16.51,18ZM31.73,32.18c-4,3.23-7.52,3-10.91-.41-.12,2.64-.18,2.88-1.86,4.11a9.34,9.34,0,0,1-3,1.78c-2.5.63-2.56,3-3.8,4.68,4.07.61,8.06,1,12.07,1.38.85.07,1.21.32,1.39,1.13.23,1,.58,2.07.88,3.11l.17,0c.34-1.45.68-2.89,1-4.37a56.17,56.17,0,0,0,13.08-1.3c-.62-1.1-1.11-2.09-1.72-3a3.7,3.7,0,0,0-1.25-1c-1.49-.84-3.06-1.55-4.5-2.46A2.93,2.93,0,0,1,31.73,32.18ZM42.23,39l-.23.25.91,2.52,2.78-.86.06-.35ZM9.49,41.7l.78-2.82L6.58,40.59l.06.32Z"/><path class="cls-2" d="M16.51,18c.26-1.72.52-3.44.8-5.16a4,4,0,0,1,.37-.92C19,9.09,21,8.5,23.48,10.42a36.9,36.9,0,0,1,3.27,3.23c1.28,1.29,2.48,2.69,3.87,3.86a4.36,4.36,0,0,0,5.56.32c1-.56,1.24-.4,1.37.73a3.8,3.8,0,0,1-1.73,3.78,3.14,3.14,0,0,0-1,1.41c-1,3-2.12,6-4.71,8.15s-5.1,1.94-7.57-.15a14.76,14.76,0,0,1-5-7.94,2.78,2.78,0,0,0-1-1.44,3.89,3.89,0,0,1-1.8-3.64c.1-1.31.27-1.45,1.41-.86A1.37,1.37,0,0,0,16.51,18Z"/><path class="cls-2" d="M31.73,32.18a2.93,2.93,0,0,0,1.57,3.59c1.44.91,3,1.62,4.5,2.46a3.7,3.7,0,0,1,1.25,1c.61.9,1.1,1.89,1.72,3a56.17,56.17,0,0,1-13.08,1.3c-.34,1.48-.68,2.92-1,4.37l-.17,0c-.3-1-.65-2.06-.88-3.11-.18-.81-.54-1.06-1.39-1.13-4-.33-8-.77-12.07-1.38,1.24-1.67,1.3-4.05,3.8-4.68a9.34,9.34,0,0,0,3-1.78c1.68-1.23,1.74-1.47,1.86-4.11C24.21,35.21,27.74,35.41,31.73,32.18Z"/><path class="cls-2" d="M42.23,39l3.52,1.56-.06.35-2.78.86L42,39.25Z"/><path class="cls-2" d="M9.49,41.7l-2.85-.79-.06-.32,3.69-1.71Z"/></g></g></svg>