<svg xmlns="http://www.w3.org/2000/svg" xmlns:xlink="http://www.w3.org/1999/xlink" viewBox="0 0 50.05 54.67"><defs><style>.cls-1{fill:url(#linear-gradient);}.cls-2{fill:#fff;}</style><linearGradient id="linear-gradient" y1="27.34" x2="50.05" y2="27.34" gradientUnits="userSpaceOnUse"><stop offset="0" stop-color="#022440"/><stop offset="0.34" stop-color="#02223d"/><stop offset="0.6" stop-color="#011a34"/><stop offset="0.82" stop-color="#010e24"/><stop offset="1" stop-color="#001"/></linearGradient></defs><g id="Layer_2" data-name="Layer 2"><g id="Layer_1-2" data-name="Layer 1"><path class="cls-1" d="M35.85,2.2a46.82,46.82,0,0,0,0,4.89c.29,2.77.88,5.51.19,8.27a4,4,0,0,1,.21,6.28,7.4,7.4,0,0,0-2,3.34c-.48,1.3-1.24,2.49-1.8,3.76a19.27,19.27,0,0,0-.73,2.38c-.39,1.42.29,2.31,1.36,3.16a13.28,13.28,0,0,0,6.9,2.6c6.57.76,10.1,6.73,10.08,12v3.3c-2,.36-4,.75-6,1.07a123.24,123.24,0,0,1-29.6,1C9.88,53.84,5.33,53,.78,52.27a1.11,1.11,0,0,1-.74-.7C-.16,47.64.3,43.92,3,40.72a10.69,10.69,0,0,1,6-3.6c2.16-.51,4.46-.56,6.41-1.8.25-.16.51-.29.77-.44,2.9-1.73,2.83-3.31,1.32-6.56-.69-1.48-1.27-3-2-4.5a4.64,4.64,0,0,0-1.08-1.57,5.23,5.23,0,0,1-1.77-5.13c0-.11,0-.27.06-.32,1.13-1,.4-2.19.33-3.34A43.43,43.43,0,0,1,13,6.25c.31-2.9,2-4.06,4.9-4a1.37,1.37,0,0,0,.8-.24c3.46-2.76,7.13-2.39,10.88-.76.71.3,1.41.62,2.11.94A5.15,5.15,0,0,0,35.85,2.2ZM18.18,7.08c-.49,2-.88,4.06-1.57,6.07-.47,1.34-1.47,2.5-.88,4.22-.38-.17-.55-.23-.7-.31-1.17-.62-1.3-.55-1.44.79a3.93,3.93,0,0,0,1.95,3.79,2.17,2.17,0,0,1,.81,1.15,14.72,14.72,0,0,0,4.95,8.09c3.52,3.17,7.2,1.45,9.06-1.14,1.42-2,2.18-4.44,3.28-6.66a4.91,4.91,0,0,1,1.12-1.6,3.74,3.74,0,0,0,1.65-2.72c.11-2-.1-2.19-2-1.51a3.57,3.57,0,0,0-1.11-3.67,2.08,2.08,0,0,1-.48-1.09c-.17-1.44-.3-2.9-.37-4.35s-.83-2-2.13-1.53A11.21,11.21,0,0,0,28,7.9a6,6,0,0,1-5.44.82c-.22-.07-.44-.12-.66-.17l-.24.29c.48.39.95.79,1.44,1.16s1,.71,1.64,1.12C22.55,10.83,21.84,10.38,18.18,7.08Zm3.53,46.18a30.2,30.2,0,0,1,1.37-12.55,1.09,1.09,0,0,0-.11-.79c-1.25-2.11-1.26-2.1.18-4,.11-.14.24-.26.39-.43a2.3,2.3,0,0,0,2.89,0c1.75,2.15,1.74,2.14.45,4.59a1.56,1.56,0,0,0,.05.9c.47,2.44,1.06,4.87,1.38,7.33a40.38,40.38,0,0,1,0,5.18l5.95-.27a28.82,28.82,0,0,0-3.93-14.74L33.27,36c-1.4-1.29-3.24-2-2.78-4.46-3.87,3.11-7.44,3-10.9-.46.73,2.56-1.19,3.51-2.72,4.86l3,2.54a28.38,28.38,0,0,0-3.93,14.83Z"/><path class="cls-2" d="M18.18,7.08c3.66,3.3,4.37,3.75,6.58,4-.6-.41-1.13-.75-1.64-1.12s-1-.77-1.44-1.16l.24-.29c.22,0,.44.1.66.17A6,6,0,0,0,28,7.9,11.21,11.21,0,0,1,30.3,6.61c1.3-.46,2.06.19,2.13,1.53s.2,2.91.37,4.35a2.08,2.08,0,0,0,.48,1.09,3.57,3.57,0,0,1,1.11,3.67c1.92-.68,2.13-.49,2,1.51a3.74,3.74,0,0,1-1.65,2.72,4.91,4.91,0,0,0-1.12,1.6c-1.1,2.22-1.86,4.67-3.28,6.66-1.86,2.59-5.54,4.31-9.06,1.14a14.72,14.72,0,0,1-4.95-8.09,2.17,2.17,0,0,0-.81-1.15,3.93,3.93,0,0,1-1.95-3.79c.14-1.34.27-1.41,1.44-.79.15.08.32.14.7.31-.59-1.72.41-2.88.88-4.22C17.3,11.14,17.69,9,18.18,7.08Z"/><path class="cls-2" d="M21.71,53.26H15.92a28.38,28.38,0,0,1,3.93-14.83l-3-2.54c1.53-1.35,3.45-2.3,2.72-4.86,3.46,3.45,7,3.57,10.9.46C30,33.91,31.87,34.66,33.27,36l-2.9,2.49A28.82,28.82,0,0,1,34.3,53.18l-5.95.27a40.38,40.38,0,0,0,0-5.18c-.32-2.46-.91-4.89-1.38-7.33a1.56,1.56,0,0,1-.05-.9c1.29-2.45,1.3-2.44-.45-4.59a2.3,2.3,0,0,1-2.89,0c-.15.17-.28.29-.39.43-1.44,1.93-1.43,1.92-.18,4a1.09,1.09,0,0,1,.11.79A30.2,30.2,0,0,0,21.71,53.26Z"/></g></g></svg>