<svg xmlns="http://www.w3.org/2000/svg" xmlns:xlink="http://www.w3.org/1999/xlink" viewBox="0 0 1088.96 84.47"><defs><style>.cls-1{fill:url(#linear-gradient);}.cls-2{fill:url(#linear-gradient-2);}.cls-3{fill:url(#linear-gradient-3);}.cls-4{fill:url(#linear-gradient-4);}.cls-5{fill:url(#linear-gradient-5);}.cls-6{fill:url(#linear-gradient-6);}.cls-7{fill:url(#linear-gradient-7);}.cls-8{fill:url(#linear-gradient-8);}.cls-9{fill:url(#linear-gradient-9);}.cls-10{fill:url(#linear-gradient-10);}.cls-11{fill:url(#linear-gradient-11);}.cls-12{fill:url(#linear-gradient-12);}.cls-13{fill:url(#linear-gradient-13);}.cls-14{fill:url(#linear-gradient-14);}.cls-15{font-size:12px;font-family:MyriadPro-Regular, Myriad Pro;}.cls-16{letter-spacing:-0.01em;}.cls-17{letter-spacing:-0.01em;}.cls-18{letter-spacing:0em;}</style><linearGradient id="linear-gradient" y1="44.43" x2="66.47" y2="44.43" gradientUnits="userSpaceOnUse"><stop offset="0" stop-color="#00243e"/><stop offset="0.35" stop-color="#00223b"/><stop offset="0.6" stop-color="#001a32"/><stop offset="0.83" stop-color="#000e22"/><stop offset="1" stop-color="#000010"/></linearGradient><linearGradient id="linear-gradient-2" x1="101.32" y1="43.39" x2="117.24" y2="43.39" xlink:href="#linear-gradient"/><linearGradient id="linear-gradient-3" x1="152.09" y1="55.04" x2="192.02" y2="55.04" xlink:href="#linear-gradient"/><linearGradient id="linear-gradient-4" x1="223.98" y1="55.04" x2="268.98" y2="55.04" xlink:href="#linear-gradient"/><linearGradient id="linear-gradient-5" x1="299.68" y1="55.1" x2="356.68" y2="55.1" xlink:href="#linear-gradient"/><linearGradient id="linear-gradient-6" x1="385.87" y1="55.1" x2="442.19" y2="55.1" xlink:href="#linear-gradient"/><linearGradient id="linear-gradient-7" x1="471.15" y1="55.04" x2="522.85" y2="55.04" xlink:href="#linear-gradient"/><linearGradient id="linear-gradient-8" x1="557.69" y1="54.47" x2="589.66" y2="54.47" xlink:href="#linear-gradient"/><linearGradient id="linear-gradient-9" x1="641.01" y1="41.6" x2="679.2" y2="41.6" xlink:href="#linear-gradient"/><linearGradient id="linear-gradient-10" x1="755.01" y1="54.47" x2="786.98" y2="54.47" xlink:href="#linear-gradient"/><linearGradient id="linear-gradient-11" x1="843.86" y1="54.47" x2="927.18" y2="54.47" xlink:href="#linear-gradient"/><linearGradient id="linear-gradient-12" x1="962.49" y1="55.04" x2="1014.18" y2="55.04" xlink:href="#linear-gradient"/><linearGradient id="linear-gradient-13" x1="1071.53" y1="44.95" x2="1088.96" y2="44.95" xlink:href="#linear-gradient"/><linearGradient id="linear-gradient-14" x1="681.53" y1="54.14" x2="747.13" y2="54.14" xlink:href="#linear-gradient"/></defs><g id="Layer_2" data-name="Layer 2"><g id="Layer_1-2" data-name="Layer 1"><path class="cls-1" d="M0,6.46A143.14,143.14,0,0,1,22.62,4.85c14.54,0,24.58,3,31.73,9C61.85,20,66.47,29.2,66.47,42.47c0,13.84-4.73,24.23-12.12,30.92C46.62,80.43,34.27,84,19.16,84A154.46,154.46,0,0,1,0,83ZM14.19,72.35A52.44,52.44,0,0,0,22,72.7c18.46.11,29.43-10,29.43-29.77.11-17.2-9.81-27-27.58-27a45.62,45.62,0,0,0-9.7.81Z"/><path class="cls-2" d="M117.24,11.31c0,4.27-3.12,7.61-8.08,7.61a7.45,7.45,0,0,1-7.84-7.61,8,8,0,0,1,15.92,0ZM102.12,83.2V27h14.31V83.2Z"/><path class="cls-3" d="M154.86,70.16a31.69,31.69,0,0,0,14.42,4c6.23,0,9-2.54,9-6.23s-2.3-5.77-9.23-8.19c-11-3.81-15.58-9.81-15.46-16.39,0-9.93,8.19-17.66,21.23-17.66a33,33,0,0,1,14.89,3.35l-2.77,10a25.23,25.23,0,0,0-11.89-3.23c-5.08,0-7.84,2.42-7.84,5.88s2.65,5.31,9.8,7.85c10.16,3.69,14.89,8.89,15,17.19,0,10.16-8,17.54-22.85,17.54a36.22,36.22,0,0,1-17.08-3.92Z"/><path class="cls-4" d="M268.87,81.47c-3,1.38-8.89,2.88-15.93,2.88-17.54,0-29-11.19-29-28.61,0-16.85,11.54-30,31.27-30A35.41,35.41,0,0,1,269,28.39L266.44,39a25.09,25.09,0,0,0-10.73-2.19c-10.85,0-17.31,8-17.19,18.23,0,11.54,7.5,18.12,17.19,18.12A27.88,27.88,0,0,0,266.91,71Z"/><path class="cls-5" d="M356.68,54.58c0,20.66-14.54,29.89-28.85,29.89-15.92,0-28.15-11-28.15-29,0-18.47,12.11-29.78,29.08-29.78C345.49,25.73,356.68,37.5,356.68,54.58Zm-42.35.58c0,10.85,5.31,19,14,19,8.08,0,13.74-8,13.74-19.27,0-8.77-3.93-18.81-13.62-18.81C318.37,36.12,314.33,45.81,314.33,55.16Z"/><path class="cls-6" d="M401.22,27l9.12,28.51c1.61,5,2.77,9.46,3.81,14.07h.34c1-4.61,2.31-9,3.81-14.07L427.19,27h15L420.72,83.2h-14L385.87,27Z"/><path class="cls-7" d="M484.77,59.08c.34,10.16,8.31,14.54,17.31,14.54a42.18,42.18,0,0,0,15.58-2.54l2.07,9.81a52.92,52.92,0,0,1-19.61,3.46c-18.24,0-29-11.19-29-28.38,0-15.58,9.46-30.24,27.46-30.24,18.24,0,24.24,15,24.24,27.35a35,35,0,0,1-.46,6Zm24.69-9.92c.12-5.19-2.19-13.73-11.65-13.73-8.77,0-12.47,8-13,13.73Z"/><path class="cls-8" d="M558.16,45.12c0-7.62-.12-13-.47-18.12H570l.46,10.73H571c2.77-8,9.34-12,15.34-12a14.92,14.92,0,0,1,3.35.35V39.47a19,19,0,0,0-4.15-.47c-6.81,0-11.43,4.39-12.7,10.74a24.35,24.35,0,0,0-.46,4.38V83.2H558.16Z"/><path class="cls-9" d="M648.62,83.2V37.62H641V27h7.61V24.58c0-7.27,2-14.54,6.81-19.16A21.51,21.51,0,0,1,670.09,0a27.76,27.76,0,0,1,9.11,1.38l-1,11a16.43,16.43,0,0,0-6-1c-7,0-9.46,5.88-9.46,12.81V27h12.35V37.62H662.82V83.2Z"/><path class="cls-10" d="M755.47,45.12c0-7.62-.11-13-.46-18.12h12.35l.46,10.73h.46c2.77-8,9.35-12,15.35-12a15,15,0,0,1,3.35.35V39.47a19.19,19.19,0,0,0-4.16-.47c-6.81,0-11.42,4.39-12.69,10.74a24.35,24.35,0,0,0-.46,4.38V83.2h-14.2Z"/><path class="cls-11" d="M844.32,43.73c0-6.46-.11-11.88-.46-16.73h12.23l.58,8.31H857a19.44,19.44,0,0,1,17.31-9.58A16.2,16.2,0,0,1,889.9,36.12h.24a21.2,21.2,0,0,1,6.92-7,18.77,18.77,0,0,1,11.31-3.35c9.35,0,18.81,6.35,18.81,24.35V83.2H913.33v-31c0-9.35-3.23-14.89-10-14.89-4.85,0-8.42,3.46-9.92,7.5a20.2,20.2,0,0,0-.7,4.73V83.2H878.83V50.66c0-7.85-3.12-13.39-9.7-13.39-5.3,0-8.88,4.16-10.15,8.08a12.08,12.08,0,0,0-.81,4.62V83.2H844.32Z"/><path class="cls-12" d="M976.1,59.08c.35,10.16,8.31,14.54,17.31,14.54A42.14,42.14,0,0,0,1009,71.08l2.08,9.81a53,53,0,0,1-19.62,3.46c-18.23,0-29-11.19-29-28.38,0-15.58,9.46-30.24,27.46-30.24,18.23,0,24.23,15,24.23,27.35a35,35,0,0,1-.46,6Zm24.7-9.92c.11-5.19-2.19-13.73-11.66-13.73-8.77,0-12.46,8-13,13.73Z"/><path class="cls-13" d="M1071.53,75.47c0-5.31,3.58-9,8.66-9,5.31,0,8.65,3.69,8.77,9s-3.46,9-8.77,9S1071.42,80.66,1071.53,75.47Zm3.23-16.27-2.07-53.78h15l-2.08,53.78Z"/><path class="cls-14" d="M714.18,36.16c.35-.77.65-1.44,1-2.1A15.4,15.4,0,0,1,728,24.81,17.17,17.17,0,0,1,745.34,34a15.81,15.81,0,0,1,1.5,5.25,29.67,29.67,0,0,1-.25,9.86,22.35,22.35,0,0,1-4.53,9.35,45.11,45.11,0,0,1-7.85,7.65c-2.65,2.08-5.39,4.06-8,6.15a105.52,105.52,0,0,0-10.61,9.55c-.52.54-1,1.15-1.48,1.75a1.39,1.39,0,0,1-.17-.21,19.64,19.64,0,0,0-4.18-5,123.85,123.85,0,0,0-9.83-7.89,103,103,0,0,1-10.22-8.54,27.1,27.1,0,0,1-6.46-9.29,25.63,25.63,0,0,1-1.69-9.07,22.08,22.08,0,0,1,.37-5.51,17.87,17.87,0,0,1,4.78-8.3,17.53,17.53,0,0,1,7.84-4.61,19,19,0,0,1,5.38-.42,12,12,0,0,1,4.84.83,18.29,18.29,0,0,1,7.57,6.14,10.61,10.61,0,0,1,1.73,4.06C714.08,35.84,714.11,36,714.18,36.16Z"/><text class="cls-15" transform="translate(368.17 48.32)"><tspan class="cls-16">L</tspan><tspan x="5.5" y="0">o</tspan><tspan class="cls-17" x="12.08" y="0">r</tspan><tspan class="cls-18" x="15.89" y="0">em ipsum</tspan></text></g></g></svg>