<svg xmlns="http://www.w3.org/2000/svg" viewBox="0 0 1409.1 105.98"><defs><style>.cls-1{fill:#fff;}</style></defs><g id="Layer_2" data-name="Layer 2"><g id="Layer_1-2" data-name="Layer 1"><path class="cls-1" d="M0,8.11a179,179,0,0,1,28.38-2c18.24,0,30.83,3.76,39.81,11.29,9.41,7.68,15.2,19.26,15.2,35.91,0,17.37-5.93,30.4-15.2,38.8C58.49,100.91,43,105.4,24,105.4a193,193,0,0,1-24-1.31ZM17.81,90.77a65.41,65.41,0,0,0,9.84.44c23.17.14,36.92-12.6,36.92-37.35C64.72,32.29,52.26,20,30,20a56.92,56.92,0,0,0-12.16,1Z"/><path class="cls-1" d="M147.09,14.19c0,5.35-3.91,9.55-10.13,9.55-5.94,0-9.85-4.2-9.85-9.55,0-5.5,4.06-9.7,10-9.7C143.18,4.49,147,8.69,147.09,14.19Zm-19,90.19V33.88h18v70.5Z"/><path class="cls-1" d="M194.29,88a39.7,39.7,0,0,0,18.09,5.07c7.82,0,11.3-3.18,11.3-7.82S220.78,78,212.09,75c-13.75-4.77-19.54-12.3-19.4-20.55,0-12.46,10.28-22.15,26.64-22.15A41.47,41.47,0,0,1,238,36.48l-3.48,12.6a31.61,31.61,0,0,0-14.91-4c-6.37,0-9.84,3-9.84,7.38,0,4.49,3.33,6.66,12.3,9.84,12.74,4.64,18.68,11.15,18.82,21.58,0,12.74-10,22-28.66,22-8.54,0-16.22-2-21.43-4.92Z"/><path class="cls-1" d="M337.32,102.21c-3.76,1.74-11.15,3.62-20,3.62-22,0-36.34-14-36.34-35.9,0-21.14,14.48-37.64,39.24-37.64,6.51,0,13.17,1.44,17.23,3.33l-3.19,13.31a31.38,31.38,0,0,0-13.46-2.75c-13.61,0-21.72,10-21.57,22.88,0,14.48,9.41,22.73,21.57,22.73a35,35,0,0,0,14-2.75Z"/><path class="cls-1" d="M447.49,68.48c0,25.91-18.24,37.5-36.19,37.5-20,0-35.33-13.76-35.33-36.34,0-23.17,15.21-37.35,36.49-37.35C433.45,32.29,447.49,47.05,447.49,68.48Zm-53.13.72c0,13.61,6.66,23.89,17.52,23.89,10.13,0,17.23-10,17.23-24.18,0-11-4.93-23.6-17.09-23.6C399.43,45.31,394.36,57.48,394.36,69.2Z"/><path class="cls-1" d="M503.38,33.88l11.43,35.76c2,6.22,3.48,11.87,4.78,17.66H520c1.31-5.79,2.9-11.29,4.78-17.66L536,33.88h18.82l-26.93,70.5H510.32l-26.2-70.5Z"/><path class="cls-1" d="M608.19,74.13c.44,12.74,10.43,18.24,21.72,18.24,8.25,0,14.19-1.16,19.54-3.19l2.61,12.31a66.43,66.43,0,0,1-24.61,4.34c-22.88,0-36.34-14-36.34-35.61,0-19.55,11.87-37.93,34.45-37.93C648.44,32.29,656,51.11,656,66.6a43.85,43.85,0,0,1-.58,7.53Zm31-12.46c.15-6.51-2.75-17.22-14.62-17.22-11,0-15.63,10-16.36,17.22Z"/><path class="cls-1" d="M700.27,56.61c0-9.56-.15-16.36-.58-22.73h15.49l.58,13.46h.58c3.47-10,11.72-15.05,19.25-15.05a18.7,18.7,0,0,1,4.2.43V49.51a24.73,24.73,0,0,0-5.21-.58c-8.54,0-14.33,5.51-15.93,13.47a30.45,30.45,0,0,0-.58,5.5v36.48h-17.8Z"/><path class="cls-1" d="M813.77,104.38V47.2h-9.56V33.88h9.56v-3c0-9.12,2.46-18.24,8.54-24,5.21-4.92,12.3-6.8,18.38-6.8a34.35,34.35,0,0,1,11.44,1.74l-1.3,13.75a20.78,20.78,0,0,0-7.53-1.3c-8.83,0-11.87,7.38-11.87,16.07v3.62h15.49V47.2H831.57v57.18Z"/><path class="cls-1" d="M990.71,56.61c0-9.56-.15-16.36-.58-22.73h15.49l.58,13.46h.58c3.47-10,11.73-15.05,19.25-15.05a18.7,18.7,0,0,1,4.2.43V49.51a24.73,24.73,0,0,0-5.21-.58c-8.54,0-14.33,5.51-15.93,13.47a31.43,31.43,0,0,0-.57,5.5v36.48H990.71Z"/><path class="cls-1" d="M1102.18,54.87c0-8.11-.15-14.91-.58-21H1117l.72,10.42h.44c3.47-5.5,9.84-12,21.71-12,9.27,0,16.51,5.21,19.55,13h.29a26.77,26.77,0,0,1,8.68-8.83,23.56,23.56,0,0,1,14.19-4.19c11.73,0,23.6,8,23.6,30.54v41.55h-17.37V65.44c0-11.73-4.06-18.68-12.6-18.68-6.08,0-10.57,4.35-12.45,9.41a25.77,25.77,0,0,0-.87,5.94v42.27h-17.37V63.56c0-9.85-3.91-16.8-12.16-16.8-6.66,0-11.15,5.21-12.74,10.14a15.08,15.08,0,0,0-1,5.79v41.69h-17.37Z"/><path class="cls-1" d="M1267.51,74.13c.44,12.74,10.43,18.24,21.72,18.24,8.25,0,14.19-1.16,19.54-3.19l2.61,12.31a66.43,66.43,0,0,1-24.61,4.34c-22.88,0-36.34-14-36.34-35.61,0-19.55,11.87-37.93,34.46-37.93,22.87,0,30.4,18.82,30.4,34.31a43.85,43.85,0,0,1-.58,7.53Zm31-12.46c.15-6.51-2.75-17.22-14.62-17.22-11,0-15.63,10-16.36,17.22Z"/><path class="cls-1" d="M1387.24,94.68c0-6.66,4.49-11.29,10.86-11.29,6.66,0,10.85,4.63,11,11.29s-4.34,11.3-11,11.3S1387.09,101.2,1387.24,94.68Zm4-20.41-2.6-67.47h18.82l-2.61,67.47Z"/><path class="cls-1" d="M915.92,45.37c.45-1,.82-1.8,1.22-2.64a19.29,19.29,0,0,1,16.17-11.6A21.56,21.56,0,0,1,955,42.68a19.76,19.76,0,0,1,1.88,6.59,37.5,37.5,0,0,1-.31,12.37,28.14,28.14,0,0,1-5.68,11.73A56.29,56.29,0,0,1,941.05,83c-3.32,2.62-6.75,5.1-10.07,7.72a132.46,132.46,0,0,0-13.3,12c-.66.68-1.23,1.45-1.87,2.2a1.56,1.56,0,0,1-.21-.26,24.35,24.35,0,0,0-5.25-6.32A156.6,156.6,0,0,0,898,88.38,129.87,129.87,0,0,1,885.2,77.67,33.92,33.92,0,0,1,877.1,66,31.85,31.85,0,0,1,875,54.63a27.61,27.61,0,0,1,.46-6.91,22.3,22.3,0,0,1,6-10.41,22,22,0,0,1,9.83-5.78A23.51,23.51,0,0,1,898,31a14.85,14.85,0,0,1,6.07,1,22.82,22.82,0,0,1,9.5,7.7,13.18,13.18,0,0,1,2.18,5.09C915.8,45,915.84,45.1,915.92,45.37Z"/></g></g></svg>