<svg xmlns="http://www.w3.org/2000/svg" viewBox="0 0 322.89 268.41"><defs><style>.cls-1{isolation:isolate;}.cls-2,.cls-4{fill:#d0d0d0;}.cls-14,.cls-3{fill:#fff;}.cls-4{opacity:0.6;}.cls-10,.cls-13,.cls-4{mix-blend-mode:multiply;}.cls-5{fill:#ff7900;}.cls-10,.cls-13,.cls-6{fill:#ff030f;}.cls-7{fill:#b50a03;}.cls-8{fill:#f32;}.cls-9{fill:#d51516;}.cls-11,.cls-12{fill:#fffceb;mix-blend-mode:screen;}.cls-11{opacity:0.9;}.cls-12{opacity:0.5;}.cls-13{font-size:65.35px;}.cls-13,.cls-14{font-family:MyriadPro-Semibold, MyriadPro Semibold;font-weight:600;}.cls-14{writing-mode:tb;text-orientation:sideways-right;glyph-orientation-vertical:90deg;font-size:19.9px;}</style></defs><g class="cls-1"><g id="Layer_2" data-name="Layer 2"><g id="Layer_1-2" data-name="Layer 1"><path class="cls-2" d="M1.55,109.86a10.94,10.94,0,0,1,2.8,1.66c-.43-.52-.84-1-1.22-1.57-.7-.94-5-8.2-2.18-7.74,4.8.77,9.44,3.57,13.41,6.24a29.74,29.74,0,0,1,5.21,4.42,22.4,22.4,0,0,1,2.44,3,8.6,8.6,0,0,1,.33-2c.21-.73,1.24-3.86,2.52-2.8s1.66,3.21,2.34,4.55a19.71,19.71,0,0,0,5.61,6.31,54.55,54.55,0,0,0,7.49,5,66.38,66.38,0,0,0,8.93,3.6c2.63,1,5.36,1.63,8,2.7a30.64,30.64,0,0,1,6,3.46l.24.14A33.73,33.73,0,0,1,69.72,142a30.19,30.19,0,0,1,5.22,6.59c1.34,2.54,2.4,5,3.49,7.62,2.82,6.92.48,15-1.87,21.75a63,63,0,0,1-6.48,13.36,44.44,44.44,0,0,1-5.65,7c-2.06,2.08-4.15,4.27-7,5.2a1.25,1.25,0,0,1-1.18-.11s0,0,0,.06a6.73,6.73,0,0,1-.52-1.55,6.24,6.24,0,0,1,1-2.64c.12-.34.23-.67.36-1-.36.43-.71.86-1.07,1.27-2,2.35-4.32,5.6-7.81,4.93-2-.39-1.7-4.82-1.58-6.07A25.88,25.88,0,0,1,48,192.3c-.34.45-.68.9-1,1.32-.83,1-3.28,4.07-4.92,2.67-1.33-1.14-1.38-2.76-1.27-4.43a29.87,29.87,0,0,1,1.61-7.62A22,22,0,0,1,39.2,188a.39.39,0,0,0-.2.12,2.86,2.86,0,0,1-1.21.74c-1.43-.81-1-3.77-.95-5.1a12,12,0,0,1,1.6-5.45,14.66,14.66,0,0,1-7,.55A40.81,40.81,0,0,1,26,177.8c-1-.27-2.56-.5-3.36-1.17-1.41-1.18-.44-2.8.32-4.18a7.19,7.19,0,0,1,3.53-3.08,13.7,13.7,0,0,1-4.58-2.19c-1.1-.84-.69-1.73.45-2.23a9.42,9.42,0,0,1,3.79-.5,38.34,38.34,0,0,1-4.66-2c-2.56-1.29-5.37-3.14-6.84-5.69a4.15,4.15,0,0,1-.87-2.91c.14-1,2.1-.55,2.65-.5a9.08,9.08,0,0,1,1.14.2A17.14,17.14,0,0,1,12,148.76c-1.13-1.61.32-2.11,1.67-2.26a21,21,0,0,1-5.86-6c-.31-.52-2.57-4.72-.94-4.84a2.81,2.81,0,0,1,1.3.25l-.46-.53a31.93,31.93,0,0,1-5.6-9c-.49-1.19-2.16-5.11-.1-5.7.54-.16,1.39.43,2.27,1.2a20.14,20.14,0,0,1-3.84-7.7C.17,113.17-.45,109.25,1.55,109.86Z"/><path class="cls-3" d="M41.88,189.24c-.28,1.44-1.36,7.62,2.08,5.82,1.71-.89,3-3,4.11-4.45.07-.08.13-.17.2-.26l1.15-1.17c-.83-1.09-.38-2.54-.07-3.89a40.49,40.49,0,0,1,1.47-5.86c-1,.9-2,1.75-3.08,2.56-.84.64-2.5,2.37-3.65,1.91a1.06,1.06,0,0,1-.63-.9v-.1C42.84,185,42.29,187.09,41.88,189.24Z"/><path class="cls-3" d="M23.19,167.17a24.06,24.06,0,0,0,4,1.38,8.79,8.79,0,0,0,1,.22l.53-.12a26.28,26.28,0,0,0-3.3,2.44c-.19.15-.39.3-.57.47s-.17.17-.25.25l-.76.69a.41.41,0,0,0-.13.42,10.17,10.17,0,0,0-.75,1.47c-.76,1.81.56,1.9,1.93,2.33a34,34,0,0,0,7.75,1.41,16.75,16.75,0,0,0,5.88-.88,9,9,0,0,1,1.64.2l-.52.31a14.55,14.55,0,0,0-2,7.17,10.77,10.77,0,0,0-.18,2.88.45.45,0,0,0,.73.25,18.19,18.19,0,0,0,2.66-3.51c1.12-1.39,2.37-3.05,2.63-3.25a30,30,0,0,1,1.78-7.3,24.39,24.39,0,0,1,2.19-5,17.83,17.83,0,0,1-6,.85A20.36,20.36,0,0,1,31,167.14a12.18,12.18,0,0,1-2.06-1.73,9.6,9.6,0,0,0-1.55-.17C26.4,165.25,20.46,165.84,23.19,167.17Z"/><path class="cls-3" d="M1.12,114c.43,4.9,5,9.41,8.48,12.51,0,0,0,0,0,0-1-.61-2-1.25-2.92-1.9-.34-.32-.67-.66-1-1-1.39-1.18-3.19-2.43-3.77-1.61-1.17,1.67,1.36,5.63,2.11,7.08a30.32,30.32,0,0,0,4.43,6.34c.4.45.82.88,1.24,1.31l.29.17,3.23,1.81c-.52-.84-1-1.89,0-1.84a7.62,7.62,0,0,1,2.45,1c.41.19.82.41,1.24.64a12,12,0,0,0-2.67-.93.46.46,0,0,0-.59.4,3.19,3.19,0,0,0,1.61,2.33c.27.32.55.63.84.94,3.25,3.44,8.39,5.72,13,7.26,1.07-.53,2.63.17,3.76.27.7.06,1.4.18,2.1.31,1,.32,2,.65,2.94,1a8.68,8.68,0,0,1,.88.42l-1-.1a60.61,60.61,0,0,0-6.51-1.34c-.47,0-1.16.05-1.31.5h-.06A.64.64,0,0,0,30,150a1.42,1.42,0,0,0,0,.2,2.59,2.59,0,0,0,.59.86c.47.65.93,1.14.49.6a17,17,0,0,0,4.32,3.4c5.27,3.22,11.3,3.1,17,1.76-1.94,1.64-5,2-7.38,2a23.86,23.86,0,0,1-3.05-.3,25.42,25.42,0,0,1-9.57-4.6c-.34-.26-3.12-3-3.56-4.47a31.54,31.54,0,0,1-15-9.69,7.6,7.6,0,0,1-.56-.77c-1.44-.65-2.92-1.19-4.41-1.72a10.38,10.38,0,0,0-1.15-.4l0,0a.46.46,0,0,0-.43.52,1.37,1.37,0,0,0,.2,1.45,9.48,9.48,0,0,0,2,3.06,19.32,19.32,0,0,0,6,4.63,16.52,16.52,0,0,1,3.28.62,15.16,15.16,0,0,1,4.15,1.78c-1.75-.59-3.61-.92-5.4-1.35a5,5,0,0,0-3.44,0c-1.12.17-1.82.65-.79,1.78a17.6,17.6,0,0,0,5.59,4A21.6,21.6,0,0,1,21,154.69c.62.45,1.2,1,1.77,1.46-.9-.36-1.81-.7-2.74-1a17.45,17.45,0,0,0-3.92-.84c-2.91-.27-.13,3.37.76,4.22a24.34,24.34,0,0,0,9.94,5.24c.46.26.93.51,1.4.75-.31-.55-.33-1,.3-1.26,1.48-.56,3.61-.18,5.16-.12,1.33,0,2.66.13,4,.19l.19.05-1.17.15c-2.12.27-4.24.13-6.36.28-.75,0-1.09.25-1.16.52-.2.05-.3.11-.26.17a5.25,5.25,0,0,0,.4.53l.15.06a3.53,3.53,0,0,0,.48.46h-.13a12.57,12.57,0,0,0,4.25,2.19c4.65,1.56,10.92,1.82,15.21-1-.52,1.28-1.16,2.52-1.65,3.82A36.22,36.22,0,0,0,46,174.8a25.91,25.91,0,0,0-1.67,8c1.22-.38,3.16-2.26,3.79-2.76a33.23,33.23,0,0,0,3.68-3.44A18.37,18.37,0,0,0,54,173.76a20.51,20.51,0,0,0,3.37-4.67A19.79,19.79,0,0,1,53.14,177a.42.42,0,0,1,0,.21c-.58,1.84-1.56,3.51-2.11,5.37-.28.95-.48,1.93-.7,2.9-.07.29-.12.58-.18.87a7.77,7.77,0,0,0-.52,2,.45.45,0,0,0,.64.43c1.89-.87,3.22-2.84,4.48-4.42a38.18,38.18,0,0,0,2.94-4.16,19.48,19.48,0,0,1-3.47,6c-.55.65-2.89,3.89-4.21,3.52-.61,1.55-1.17,3.12-1.63,4.73-.61,2.15-2.66,11.06,2.4,8.53,2-1,3.58-3.26,5.06-4.86.28-.31.55-.63.82-1q2.09-2.2,4.08-4.5c-.63,1.4-1.27,2.78-1.89,4.17a.24.24,0,0,1,0,.19c-.46.87-.87,1.75-1.26,2.65-.1.24-.92,2.8-.89,2.79a16.61,16.61,0,0,0,5.72-4,51.41,51.41,0,0,0,9.27-12.17,55.82,55.82,0,0,0,5.07-11.85c1.19-4,2.14-8.12,1.71-12.27a31,31,0,0,0-1.61-6.85,28.11,28.11,0,0,0-2-4.47A48.23,48.23,0,0,0,63.46,137.9c-4.17-3.25-9-4.29-13.77-6.08a65.75,65.75,0,0,1-11.88-5.28,45,45,0,0,1-9.15-7.47A16.85,16.85,0,0,1,26,114.92c-.33-.65-.6-1.33-.87-2-.52-1.34-1.42,1-1.61,1.41a7.39,7.39,0,0,0-.54,3.43.43.43,0,0,0,0,0v.06a9.33,9.33,0,0,0,1,3.42c2.94,4.78,8.8,7.61,13.64,10.11,5.74,3,11.6,6,17,9.5,10,6.34,16.48,16.49,15.31,28.55,0,.19-.3-.13-.3-.25a29.59,29.59,0,0,0-6-19.3c-4.3-5.65-10.64-9.1-16.78-12.38-2.82-1.5-5.62-3-8.41-4.55s-6-2.85-8.54-4.8c-3.78-2.91-7.42-5.86-8.13-10.89,0-.16,0-.2.11-.17l0-.23C17.9,111,11.43,106.71,4.71,104.27c-.62-.23-4.37-1.73-3.65,0a22.88,22.88,0,0,0,2.6,5.3,30.33,30.33,0,0,0,6.11,6.13,18.8,18.8,0,0,1,4.79,2.09,49.43,49.43,0,0,1,4.73,3.29c.15-.11.45.33.33.46l-.11.11c-.07.07-.2-.06-.24-.1a20.94,20.94,0,0,0-7.47-4.14c-.69-.25-2.79-1.25-1.93.47a31.81,31.81,0,0,0,2.07,3.45c2.9,4.44,6.93,7.49,10.79,11a10.92,10.92,0,0,1,3.52.71,42,42,0,0,1,5.62,2.89l-1.28-.47c-1.12-.5-2.22-1.08-3.37-1.51A7.71,7.71,0,0,0,24,133.1c-1.31.16-.92,1.2-.28,1.92l0,0a23.48,23.48,0,0,0,1.68,2.27,27.43,27.43,0,0,0,3.83,3.71,26.65,26.65,0,0,0,4.82,3.19,25,25,0,0,0,4,2.42c-6.45-1.4-13-7.11-15.94-12.76-.39-.75-.34-1.18,0-1.4a47.13,47.13,0,0,1-8.92-8.36,45.94,45.94,0,0,1-3.94-6c-.38-.67-.94-1.64-.63-2.42a.12.12,0,0,1,.1-.07l-.63-.28a26.26,26.26,0,0,1-2.58-2.48,22.77,22.77,0,0,0-2.46-1.38,2.17,2.17,0,0,0-1.9-.38C.7,111.89,1,113.15,1.12,114Z"/><path class="cls-4" d="M.39,114.18a20.14,20.14,0,0,0,3.84,7.7c-.88-.77-1.73-1.36-2.27-1.2-2.06.59-.39,4.51.1,5.7a31.93,31.93,0,0,0,5.6,9l.46.53a2.81,2.81,0,0,0-1.3-.25c-1.63.12.63,4.32.94,4.84a21,21,0,0,0,5.86,6c-1.35.15-2.8.65-1.67,2.26a17.14,17.14,0,0,0,5.62,4.77,9.08,9.08,0,0,0-1.14-.2c-.55-.05-2.51-.5-2.65.5a4.15,4.15,0,0,0,.87,2.91c1.47,2.55,4.28,4.4,6.84,5.69a38.34,38.34,0,0,0,4.66,2,9.42,9.42,0,0,0-3.79.5c-1.14.5-1.55,1.39-.45,2.23a13.7,13.7,0,0,0,4.58,2.19A7.19,7.19,0,0,0,23,172.45c-.76,1.38-1.73,3-.32,4.18.8.67,2.39.9,3.36,1.17a40.81,40.81,0,0,0,5.48,1.07,14.66,14.66,0,0,0,7-.55,12,12,0,0,0-1.6,5.45c-.05,1.33-.48,4.29.95,5.1a2.86,2.86,0,0,0,1.21-.74.39.39,0,0,1,.2-.12,22,22,0,0,0,3.2-3.77,29.87,29.87,0,0,0-1.61,7.62c-.11,1.67-.06,3.29,1.27,4.43,1.64,1.4,4.09-1.68,4.92-2.67.36-.42.7-.87,1-1.32a25.88,25.88,0,0,0-1.37,6.1c-.12,1.25-.42,5.68,1.58,6.07,3.49.67,5.79-2.58,7.81-4.93.36-.41.71-.84,1.07-1.27-.13.33-.24.66-.36,1a6.24,6.24,0,0,0-1,2.64,6.73,6.73,0,0,0,.52,1.55s0,0,0-.06a1.25,1.25,0,0,0,1.18.11c2.86-.93,4.95-3.12,7-5.2a44.44,44.44,0,0,0,5.65-7A63,63,0,0,0,76.56,178c2.35-6.7,4.69-14.83,1.87-21.75l-.21-.51a32.8,32.8,0,0,1,.17,8c-.78,7.84-4.81,14.77-10.36,20.21-.51.5-1.18-.22-.88-.78a33.56,33.56,0,0,0,3.63-23.54c-1.87-8.37-7.53-14.85-14.4-19.65-7.75-5.41-16.79-8.65-24.48-14.15-4.29-3.06-8.35-9.34-7.5-14.94-1.06-.12-1.87,2.37-2.06,3a8.6,8.6,0,0,0-.33,2,22.4,22.4,0,0,0-2.44-3c-.5-.53-1-1-1.55-1.52a17.91,17.91,0,0,1,2.84,7.15.6.6,0,0,1-.77.68c-4.61-1.76-8.64-4.91-12.45-8-2.94-2.38-5.86-5.27-6.9-9-2.34,0,1.71,6.83,2.39,7.74.38.53.79,1,1.22,1.57a10.94,10.94,0,0,0-2.8-1.66C-.45,109.25.17,113.17.39,114.18Zm11.45,4.49a.59.59,0,0,1,.78-.52c7.89,2.12,13.69,8.22,20.11,12.88,10.09,5.51,20.91,10,28.54,18.87,7.32,8.47,8.61,23.44,1.16,32.32-.34.4-1.18.27-1.08-.37a53.23,53.23,0,0,0,.56-11.11,38.45,38.45,0,0,1-6.35,10.81.59.59,0,0,1-1.05-.52c1.82-5.79,3.94-11.46,3.39-17.28a39.75,39.75,0,0,1-2.23,5c-1.31,2.54-2.87,5.54-5.52,6.87a.6.6,0,0,1-.85-.41c-1-3.72,1.46-8.42,2.4-12A29.75,29.75,0,0,1,54.86,155c-5.75,1.76-12.51-.13-18.13-1.59a.6.6,0,0,1-.07-1.09c2.57-1,5.46-1.13,8.16-1.57l1.06-.15a56.19,56.19,0,0,1-5.29-2.78c-4.62-2.71-9.53-6.24-12.67-10.64a.62.62,0,0,1,.06-.84c.88-.78,3.14.11,4.15.31.84.16,1.67.38,2.49.61-1.61-2-4.37-2.84-6.64-3.76a38.09,38.09,0,0,1-8.06-4.43C16.7,126.76,11.78,123,11.84,118.67Z"/><path class="cls-4" d="M1.55,109.86a10.94,10.94,0,0,1,2.8,1.66c-.43-.52-.84-1-1.22-1.57-.65-.88-4.41-7.2-2.62-7.7.63,4.77,3.61,8.82,7.26,12.13A4.86,4.86,0,0,0,5.34,114c-2.46.34-.56,4.35,0,5.34a79.73,79.73,0,0,0,7.53,10.34,12.78,12.78,0,0,0-5.48-2.12.6.6,0,0,0-.62.71c.57,4,3.34,7.75,6.68,10.43a8.11,8.11,0,0,0-3.56-.47.59.59,0,0,0-.46.7c.55,3.39,4.37,5.83,7.27,7.12a26.58,26.58,0,0,0,7,2c-1.75.34-4.15-.74-5.47.65-1.7,1.8,3.32,4.6,4.23,5.1a60.6,60.6,0,0,0,8.09,3.52c-1-.15-2.08-.32-3.11-.49-1.78-.32-3.73-.74-5.45,0a.59.59,0,0,0-.27.79c1.37,3.38,6.05,3.84,9.16,4.46,1.55.31,3.15.61,4.75.84-.76.29-1.5.59-2.16.89a.62.62,0,0,0-.18.93c1.91,2.71,6.45,2.3,9.35,2.26A21.17,21.17,0,0,0,49,166c.14,5.47-16,4.55-19.33,5.4a.6.6,0,0,0-.46.7c.57,3.19,5,3.56,7.56,3.55a15.63,15.63,0,0,0,7.68-1.74c-2.13,2.74-4.31,5.4-5.44,8.77a.6.6,0,0,0,.83.73,14.24,14.24,0,0,0,3.52-2.81,2.48,2.48,0,0,0,.71,2.63c.71.49,1.65-.24,2.17-.65,1.19-.95,2.46-1.77,3.62-2.75.67-.57,1.31-1.16,1.94-1.76a33.24,33.24,0,0,0-2.18,7.07c-.22,1.26-.85,3.58,1.37,3.06a9.19,9.19,0,0,0,4.86-3.67,65.07,65.07,0,0,0-3.1,6.8c-.51,1.4-2.83,6.41-.29,7.2s6.08-4.17,7.28-5.75a41.84,41.84,0,0,0,3.07-4.64c-.91,3-2.31,6-2.89,9.1a.58.58,0,0,0,.55.63c2,.17,3.79-1.46,5.16-2.72a47.51,47.51,0,0,0,5.56-5.61c-.36.61-.72,1.2-1.1,1.79a44.44,44.44,0,0,1-5.65,7c-2.06,2.08-4.15,4.27-7,5.2a1.25,1.25,0,0,1-1.18-.11s0,0,0,.06a6.73,6.73,0,0,1-.52-1.55,6.24,6.24,0,0,1,1-2.64c.12-.34.23-.67.36-1-.36.43-.71.86-1.07,1.27-2,2.35-4.32,5.6-7.81,4.93-2-.39-1.7-4.82-1.58-6.07A25.88,25.88,0,0,1,48,192.3c-.34.45-.68.9-1,1.32-.83,1-3.28,4.07-4.92,2.67-1.33-1.14-1.38-2.76-1.27-4.43a29.87,29.87,0,0,1,1.61-7.62A22,22,0,0,1,39.2,188a.39.39,0,0,0-.2.12,2.86,2.86,0,0,1-1.21.74c-1.43-.81-1-3.77-.95-5.1a12,12,0,0,1,1.6-5.45,14.66,14.66,0,0,1-7,.55A40.81,40.81,0,0,1,26,177.8c-1-.27-2.56-.5-3.36-1.17-1.41-1.18-.44-2.8.32-4.18a7.19,7.19,0,0,1,3.53-3.08,13.7,13.7,0,0,1-4.58-2.19c-1.1-.84-.69-1.73.45-2.23a9.42,9.42,0,0,1,3.79-.5,38.34,38.34,0,0,1-4.66-2c-2.56-1.29-5.37-3.14-6.84-5.69a4.15,4.15,0,0,1-.87-2.91c.14-1,2.1-.55,2.65-.5a9.08,9.08,0,0,1,1.14.2A17.14,17.14,0,0,1,12,148.76c-1.13-1.61.32-2.11,1.67-2.26a21,21,0,0,1-5.86-6c-.31-.52-2.57-4.72-.94-4.84a2.81,2.81,0,0,1,1.3.25l-.46-.53a31.93,31.93,0,0,1-5.6-9c-.49-1.19-2.16-5.11-.1-5.7.54-.16,1.39.43,2.27,1.2a20.14,20.14,0,0,1-3.84-7.7C.17,113.17-.45,109.25,1.55,109.86Z"/><path class="cls-2" d="M240.38,7.44a20.09,20.09,0,0,1,3.68,7.78c-.07-1.17,0-2.2.46-2.53,1.74-1.25,3.78,2.48,4.42,3.59a32.39,32.39,0,0,1,3.63,10c0,.22.09.45.13.68a3,3,0,0,1,.61-1.17c1.1-1.21,3,3.16,3.22,3.72a20.87,20.87,0,0,1,1.09,8.31c.95-1,2.24-1.8,2.81.08a17.18,17.18,0,0,1,.28,7.36c.17-.35.35-.69.55-1s1.15-2.27,2-1.77A4.19,4.19,0,0,1,265,44.94c1.1,2.73.81,6.09.24,8.9A38.25,38.25,0,0,1,264,58.76a9.32,9.32,0,0,1,2.74-2.68c1.1-.59,2-.36,2,1a13.64,13.64,0,0,1-1.1,5,7.17,7.17,0,0,1,4.6-.88c1.55.26,3.43.49,3.49,2.34,0,1-.77,2.43-1.16,3.36a39.42,39.42,0,0,1-2.54,5A14.65,14.65,0,0,1,267.32,77a12.06,12.06,0,0,1,5.27,2.12c1.08.78,3.67,2.26,3.42,3.89a2.86,2.86,0,0,1-1.33.49.34.34,0,0,0-.21.09,22.14,22.14,0,0,1-4.94.18,29.55,29.55,0,0,1,7,3.45c1.37.94,2.62,2,2.69,3.73.1,2.15-3.84,2.18-5.14,2.22-.55,0-1.11,0-1.68,0A26,26,0,0,1,278,95.83c1.06.69,4.72,3.18,3.79,5-1.62,3.16-5.6,3-8.69,3.1-.55,0-1.11,0-1.67,0l1,.34a6.15,6.15,0,0,1,2.73.81,6.91,6.91,0,0,1,.89,1.36l-.05,0a1.26,1.26,0,0,1-.65,1c-2.49,1.67-5.5,2-8.41,2.29a44.08,44.08,0,0,1-9,.15,63.1,63.1,0,0,1-14.5-3.15c-6.73-2.29-14.56-5.47-18.26-12a83.24,83.24,0,0,1-3.85-7.45,30.06,30.06,0,0,1-1.95-8.18,33.27,33.27,0,0,1-.19-8.16c0-.09,0-.19,0-.28a30.33,30.33,0,0,1,1-6.83c.76-2.71,1.94-5.26,2.79-7.93a66.52,66.52,0,0,0,2.69-9.25,56.24,56.24,0,0,0,.7-9A20,20,0,0,0,225,29.42c-.63-1.36-2.08-3-2.13-4.65s3.06-.54,3.76-.25a8.42,8.42,0,0,1,1.78,1,23.46,23.46,0,0,1-.87-3.78,30,30,0,0,1-.25-6.83c.35-4.77,1-10.15,3.37-14.4C232-2,235,5.85,235.36,7c.17.63.33,1.27.47,1.93a11.21,11.21,0,0,1,.43-3.22C237,3.74,239.72,6.64,240.38,7.44Z"/><path class="cls-3" d="M267.82,83.75l.08.07a1.06,1.06,0,0,1,.32,1.05c-.36,1.19-2.74,1.42-3.76,1.69-1.29.34-2.6.63-3.92.84a40.47,40.47,0,0,1,5.52,2.47c1.25.59,2.67,1.13,3,2.45q.81-.07,1.62-.18H271c1.86,0,4.28.3,6-.49,3.54-1.59-2-4.56-3.29-5.23C271.84,85.43,269.85,84.57,267.82,83.75Z"/><path class="cls-3" d="M263.85,60.21a10,10,0,0,0-.82,1.33,13.2,13.2,0,0,1,.09,2.69,20.22,20.22,0,0,1-4.31,9.85,17.39,17.39,0,0,1-4.39,4.23,24.58,24.58,0,0,1,5.28,1.36,29.91,29.91,0,0,1,6.85,3.12c.31-.09,2.39,0,4.18-.07a17.6,17.6,0,0,0,4.4.08.44.44,0,0,0,.25-.72A10,10,0,0,0,273,80.44a14.53,14.53,0,0,0-6.89-2.84l-.56.23a9.7,9.7,0,0,1,.85-1.42,16.6,16.6,0,0,0,4.33-4.08,34.16,34.16,0,0,0,3.68-7c.5-1.34,1.25-2.43-.64-3a9.1,9.1,0,0,0-1.62-.32.41.41,0,0,0-.41-.17l-1,.18-.35,0a6,6,0,0,0-.73.17,24.84,24.84,0,0,0-3.95,1.08c.14-.11.27-.24.42-.35a8.51,8.51,0,0,0,.44-.91,23.17,23.17,0,0,0,1.4-4C268.61,55.13,264.48,59.44,263.85,60.21Z"/><path class="cls-3" d="M237.48,6.18a2.15,2.15,0,0,0-.86,1.73,20,20,0,0,0-.44,2.79,26.49,26.49,0,0,1,.35,3.56c0,.22-.11.44-.17.66a.17.17,0,0,1,.12,0c.8.24,1.23,1.27,1.52,2a46.81,46.81,0,0,1,2.28,6.8,46.64,46.64,0,0,1,1.06,12.18c.37-.11.74.11,1.09.89,2.6,5.83,3.07,14.48.19,20.42a24.55,24.55,0,0,0,.59-4.66,26.83,26.83,0,0,0,.47-5.77,27,27,0,0,0-.56-5.3,22.5,22.5,0,0,0-.75-2.72.2.2,0,0,0,0-.07c-.17-.94-.75-1.89-1.68-1a7.45,7.45,0,0,0-1.33,3.06c-.37,1.17-.6,2.39-.9,3.58L238,45.62a41.91,41.91,0,0,1,1.2-6.2,10.8,10.8,0,0,1,1.61-3.2c-.35-5.2-.27-10.25-2-15.28a36.32,36.32,0,0,0-1.43-3.76c-.83-1.73-1.34.54-1.57,1.24-.85,2.56-1.67,5.7-1.35,8.43,0,0,0,.24-.07.25h-.16c-.18,0-.34-.48-.16-.54a49.07,49.07,0,0,1,.34-5.75,18.4,18.4,0,0,1,1.32-5.05,30.63,30.63,0,0,0-1-8.6,23.12,23.12,0,0,0-2.57-5.32c-.92-1.64-2,2.24-2.26,2.87-2.23,6.79-2.88,14.51-.79,21.39l.17.17c0-.08.09-.1.21,0C233,30,233.08,34.65,233,39.42c0,3.2-1,6.53-1.5,9.68s-1.05,6.28-1.61,9.42c-1.21,6.86-2.41,14-.62,20.84A29.6,29.6,0,0,0,240.79,96c.1.06.18.48,0,.38-10.21-6.52-14.17-17.92-13-29.67.64-6.43,1.85-12.93,3.07-19.27,1-5.36,2.42-11.72.47-17a9.54,9.54,0,0,0-2.05-2.93l0,0s0,0,0,0a7.42,7.42,0,0,0-3-1.69c-.45-.12-2.82-.84-2.09.4.37.63.73,1.26,1,1.92a17,17,0,0,1,1.64,4.63A44.56,44.56,0,0,1,227,44.51a65.36,65.36,0,0,1-3.18,12.6c-1.56,4.89-3.7,9.3-3.71,14.58a47.88,47.88,0,0,0,3.11,17A26.89,26.89,0,0,0,225.45,93a30.65,30.65,0,0,0,4.39,5.5c3,2.9,6.86,4.72,10.7,6.23A55.46,55.46,0,0,0,253,108.1a51.69,51.69,0,0,0,15.31.23,16.77,16.77,0,0,0,6.67-2s-2.49-1-2.75-1c-1-.25-1.9-.47-2.86-.65a.22.22,0,0,1-.13-.15l-4.44-1.08q3-.15,6-.43.65,0,1.26-.06c2.18-.18,4.93,0,6.94-1,5.13-2.42-3.15-6.31-5.22-7.15a47.94,47.94,0,0,0-4.72-1.64c-.54,1.26-4.52,1.11-5.37,1.13a19.42,19.42,0,0,1-6.88-1,39.33,39.33,0,0,0,5.1.26c2,0,4.39.15,6.23-.79a.45.45,0,0,0,.07-.77,7.54,7.54,0,0,0-1.87-.8c-.26-.13-.52-.28-.8-.41-.89-.42-1.78-.87-2.7-1.23-1.81-.71-3.73-1-5.53-1.67a.35.35,0,0,1-.15-.15,19.7,19.7,0,0,1-8.81-1.59,20.2,20.2,0,0,0,5.75.25,20.19,20.19,0,0,0,3.57,0,33.5,33.5,0,0,0,5-.78c.78-.18,3.46-.55,4.51-1.28a25.89,25.89,0,0,0-7.32-3.61,33.28,33.28,0,0,0-4.37-1.34c-1.32-.41-2.69-.68-4-1.06,4.87-1.63,8.53-6.72,10.18-11.34a12.45,12.45,0,0,0,.9-4.7l-.07.11a3.37,3.37,0,0,0-.06-.66,1.42,1.42,0,0,1,.05-.16,4.67,4.67,0,0,0-.18-.64c0-.07-.13,0-.29.1-.25-.11-.62,0-1.13.59-1.43,1.57-2.62,3.33-4.14,4.84l-.85.82.08-.18c.78-1.08,1.52-2.18,2.31-3.25.91-1.26,1.92-3.16,3.28-4,.57-.34.94,0,1.18.54.1-.51.2-1,.28-1.56a24.39,24.39,0,0,0,2-11.06c-.12-1.22-1.26-5.65-2.84-3.19a16.72,16.72,0,0,0-1.77,3.6c-.33.92-.62,1.84-.9,2.78,0-.77-.08-1.53,0-2.3a20.84,20.84,0,0,1,.26-2.53,17.55,17.55,0,0,0,.29-6.89c-.25-1.51-1-1.25-1.88-.47A5,5,0,0,0,256,41.52c-.77,1.67-1.65,3.33-2.28,5.08a15.47,15.47,0,0,1,1.17-4.37,17.3,17.3,0,0,1,1.53-3,19.36,19.36,0,0,0,.05-7.55,9.7,9.7,0,0,0-1.18-3.44,1.37,1.37,0,0,0-1-1.05.48.48,0,0,0-.68,0h0a8.38,8.38,0,0,0-.4,1.16c-.5,1.49-1,3-1.37,4.51a9.12,9.12,0,0,1,.26.92,31.5,31.5,0,0,1-1.64,17.78c.89,1.25,1.32,5.13,1.32,5.56a25.31,25.31,0,0,1-2.29,10.37,23.46,23.46,0,0,1-1.65,2.58c-1.46,1.91-3.6,4.08-6.09,4.59,4.6-3.69,8.42-8.36,9.13-14.49a16.64,16.64,0,0,0,0-5.5c.15.68.05,0-.16-.75a2.51,2.51,0,0,0-.32-1,.76.76,0,0,0-.13-.17.63.63,0,0,0-.23-.25l0,.06c-.45-.17-.95.3-1.2.71a60,60,0,0,0-3,5.95l-.55.86a9.59,9.59,0,0,1,.22-.95c.29-1,.64-2,1-3,.33-.64.68-1.26,1.06-1.85.62-.94,1-2.6,2.11-3.12,1.64-4.58,3-10,2.32-14.71-.06-.42-.14-.83-.22-1.24a3.22,3.22,0,0,0-.85-2.71c-.24-.2-.55,0-.67.23a11.82,11.82,0,0,0-.92,2.67c.08-.48.16-.94.26-1.37a8,8,0,0,1,.7-2.57c.58-.81,1.13.2,1.46,1.12.19-1.21.39-2.43.58-3.65,0-.11,0-.22,0-.34-.07-.6-.16-1.19-.26-1.78a30.29,30.29,0,0,0-2.25-7.4c-.68-1.48-2.22-5.92-4.27-6-1-.05-1.12,2.13-1.06,4,.08.47.13.94.18,1.4-.08,1.16-.18,2.32-.31,3.48a.43.43,0,0,0,0-.05c-.3-4.63-1-11-4.6-14.4C239.16,7.32,238.38,6.27,237.48,6.18Z"/><path class="cls-4" d="M236.26,5.69a11.21,11.21,0,0,0-.43,3.22c-.14-.66-.3-1.3-.47-1.93-.31-1.09-3.17-8.5-4.62-6.66,2.28,3.12,2.75,7.19,2.8,11,.07,4.89.06,10-1.4,14.72a.61.61,0,0,1-1,.19,18.11,18.11,0,0,1-3.87-6.65c.06.72.13,1.44.24,2.16a23.46,23.46,0,0,0,.87,3.78,8.42,8.42,0,0,0-1.78-1c-.62-.25-3.07-1.15-3.64-.24,4.93,2.79,7.36,9.87,7.12,15.13-.43,9.44-3.46,18.56-4,28-.47,8.36,1.13,16.82,6.56,23.46a33.53,33.53,0,0,0,20.75,11.68c.63.11.79,1.08.07,1.18-7.71,1-15.64-.1-22.29-4.34A32.66,32.66,0,0,1,225,94.32c.09.15.17.31.27.47,3.7,6.5,11.53,9.68,18.26,12a63.1,63.1,0,0,0,14.5,3.15,44.08,44.08,0,0,0,9-.15c2.91-.33,5.92-.62,8.41-2.29a1.26,1.26,0,0,0,.65-1l.05,0a6.91,6.91,0,0,0-.89-1.36,6.15,6.15,0,0,0-2.73-.81l-1-.34c.56,0,1.12,0,1.67,0,3.09-.14,7.07.06,8.69-3.1.93-1.82-2.73-4.31-3.79-5a26,26,0,0,0-5.65-2.68c.57,0,1.13,0,1.68,0,1.3,0,5.24-.07,5.14-2.22-.07-1.76-1.32-2.79-2.69-3.73a29.55,29.55,0,0,0-7-3.45,22.14,22.14,0,0,0,4.94-.18.34.34,0,0,1,.21-.09A2.86,2.86,0,0,0,276,83c.25-1.63-2.34-3.11-3.42-3.89A12.06,12.06,0,0,0,267.32,77a14.65,14.65,0,0,0,4.73-5.13,39.42,39.42,0,0,0,2.54-5c.39-.93,1.19-2.32,1.16-3.36-.06-1.85-1.94-2.08-3.49-2.34a7.17,7.17,0,0,0-4.6.88,13.64,13.64,0,0,0,1.1-5c0-1.38-.92-1.61-2-1A9.32,9.32,0,0,0,264,58.76a38.25,38.25,0,0,0,1.28-4.92c.57-2.81.86-6.17-.24-8.9a4.19,4.19,0,0,0-1.75-2.48c-.88-.5-1.73,1.31-2,1.77s-.38.67-.55,1a17.18,17.18,0,0,0-.28-7.36c-.57-1.88-1.86-1.06-2.81-.08a20.87,20.87,0,0,0-1.09-8.31c-.21-.56-2.12-4.93-3.22-3.72A3,3,0,0,0,252.7,27c0-.23-.09-.46-.13-.68a32.39,32.39,0,0,0-3.63-10c-.64-1.11-2.68-4.84-4.42-3.59-.46.33-.53,1.36-.46,2.53a20.09,20.09,0,0,0-3.68-7.78C239.72,6.64,237,3.74,236.26,5.69ZM240,32a39.33,39.33,0,0,1-1.49,9.08c-.69,2.35-1.7,5.07-1.15,7.55.33-.8.66-1.58,1-2.34.47-.92,1.17-3.24,2.33-3.45a.6.6,0,0,1,.69.47c1.52,5.18,1.27,11.22.54,16.53a54,54,0,0,1-1.08,5.88l.78-.74c2-1.85,3.91-4,6.27-5.45a.6.6,0,0,1,.81.73c-2.32,5.32-5,11.81-9.95,15.24a29.75,29.75,0,0,1,8.42,2.59c3.4,1.47,8.63,2.42,10.93,5.53a.61.61,0,0,1-.2.92c-2.69,1.26-6,.64-8.82.1a39.89,39.89,0,0,1-5.3-1.33c4.24,4,10,5.87,15.68,8a.59.59,0,0,1-.23,1.15,38.24,38.24,0,0,1-12.43-1.68,53.25,53.25,0,0,0,9.08,6.42c.57.32.15,1.06-.37,1.08C244,98.63,233,88.37,230.86,77.39c-2.22-11.46.89-22.77,2.79-34.11.3-7.93-.91-16.25,2.29-23.77a.59.59,0,0,1,.89-.29C240.29,21.85,240.19,28,240,32Z"/><path class="cls-4" d="M236.26,5.69a11.21,11.21,0,0,0-.43,3.22c-.14-.66-.3-1.3-.47-1.93-.29-1.05-3-7.91-4.44-6.81,3.36,3.44,4.7,8.28,5.05,13.2a4.77,4.77,0,0,1,1.22-2.14c1.77-1.72,3.76,2.25,4.16,3.33a79.29,79.29,0,0,1,3.49,12.31,12.72,12.72,0,0,1,1.71-5.62.61.61,0,0,1,.95-.05c2.81,2.93,4,7.41,4.07,11.7a8.18,8.18,0,0,1,1.83-3.09.6.6,0,0,1,.84.07c2.33,2.52,1.88,7,1.1,10.11a26.14,26.14,0,0,1-2.73,6.69c1.35-1.16,2-3.72,3.89-3.9,2.46-.23,1.57,5.45,1.4,6.48a60.94,60.94,0,0,1-2.23,8.53c.53-.91,1-1.83,1.53-2.75.86-1.59,1.73-3.39,3.37-4.29a.6.6,0,0,1,.79.29c1.81,3.16-.72,7.12-2.15,10-.72,1.42-1.46,2.86-2.27,4.26.7-.43,1.39-.82,2-1.15a.61.61,0,0,1,.84.43c1,3.17-2.17,6.49-4,8.75a21.11,21.11,0,0,1-4.69,4.4c4.21,3.49,13.44-9.74,16.19-11.87a.6.6,0,0,1,.83.07c2.15,2.43-.27,6.1-1.88,8.14a15.52,15.52,0,0,1-6.12,5c3.47,0,6.91-.06,10.27,1.14a.6.6,0,0,1,.06,1.1,14.24,14.24,0,0,1-4.39,1c.91.49,1.71,1.17,1.63,2.18-.06.86-1.21,1.15-1.85,1.3-1.48.35-2.91.84-4.4,1.15-.86.17-1.72.32-2.58.44A32.91,32.91,0,0,1,265.8,90c1.13.6,3.34,1.53,1.56,3a9.14,9.14,0,0,1-5.89,1.55,67.32,67.32,0,0,1,7.26,1.76c1.42.46,6.79,1.74,5.84,4.22s-7,2.21-9,2.18a40.7,40.7,0,0,1-5.53-.46c2.94,1.17,6.12,1.89,8.94,3.35a.6.6,0,0,1,.15.83c-1.11,1.67-3.49,2.07-5.33,2.37a48.19,48.19,0,0,1-7.84.92c.69.09,1.39.17,2.08.23a44.08,44.08,0,0,0,9-.15c2.91-.33,5.92-.62,8.41-2.29a1.26,1.26,0,0,0,.65-1l.05,0a6.91,6.91,0,0,0-.89-1.36,6.15,6.15,0,0,0-2.73-.81l-1-.34c.56,0,1.12,0,1.67,0,3.09-.14,7.07.06,8.69-3.1.93-1.82-2.73-4.31-3.79-5a26,26,0,0,0-5.65-2.68c.57,0,1.13,0,1.68,0,1.3,0,5.24-.07,5.14-2.22-.07-1.76-1.32-2.79-2.69-3.73a29.55,29.55,0,0,0-7-3.45,22.14,22.14,0,0,0,4.94-.18.34.34,0,0,1,.21-.09A2.86,2.86,0,0,0,276,83c.25-1.63-2.34-3.11-3.42-3.89A12.06,12.06,0,0,0,267.32,77a14.65,14.65,0,0,0,4.73-5.13,39.42,39.42,0,0,0,2.54-5c.39-.93,1.19-2.32,1.16-3.36-.06-1.85-1.94-2.08-3.49-2.34a7.17,7.17,0,0,0-4.6.88,13.64,13.64,0,0,0,1.1-5c0-1.38-.92-1.61-2-1A9.32,9.32,0,0,0,264,58.76a38.25,38.25,0,0,0,1.28-4.92c.57-2.81.86-6.17-.24-8.9a4.19,4.19,0,0,0-1.75-2.48c-.88-.5-1.73,1.31-2,1.77s-.38.67-.55,1a17.18,17.18,0,0,0-.28-7.36c-.57-1.88-1.86-1.06-2.81-.08a20.87,20.87,0,0,0-1.09-8.31c-.21-.56-2.12-4.93-3.22-3.72A3,3,0,0,0,252.7,27c0-.23-.09-.46-.13-.68a32.39,32.39,0,0,0-3.63-10c-.64-1.11-2.68-4.84-4.42-3.59-.46.33-.53,1.36-.46,2.53a20.09,20.09,0,0,0-3.68-7.78C239.72,6.64,237,3.74,236.26,5.69Z"/><path class="cls-3" d="M143.35,182.41q.94,1.78,1.86,3.57L65.93,223.45l-1.72-3.63Z"/><path class="cls-5" d="M65.49,223.66,63.78,220a.44.44,0,0,1,0-.37.44.44,0,0,1,.25-.27L143.14,182a.51.51,0,0,1,.64.21c.63,1.19,1.25,2.38,1.86,3.58a.46.46,0,0,1,0,.38.49.49,0,0,1-.25.28L66.14,223.89l-.07,0A.5.5,0,0,1,65.49,223.66Zm77.65-40.61-78.28,37,1.31,2.76,78.38-37.05Z"/><path class="cls-6" d="M50.07,214.09l18.15,5.53s-7.69,27.73-19.3,24.21,4.44-16.7,4.44-16.7-14-.95-17.47-7C30.06,210.05,50.07,214.09,50.07,214.09Z"/><path class="cls-7" d="M48.78,244.3c-2.6-.79-4.11-2.13-4.48-4-.9-4.52,5.47-10.68,7.87-12.82-3.47-.37-13.69-1.9-16.7-7.12-1.09-1.89-1.4-3.48-.9-4.71a4.36,4.36,0,0,1,3.1-2.35c4.5-1.31,12.17.22,12.54.3l18.15,5.52a.49.49,0,0,1,.33.6c-.25.88-6.15,21.82-15.67,24.58h0A7.46,7.46,0,0,1,48.78,244.3ZM50,214.57c-.08,0-7.76-1.55-12-.31A3.48,3.48,0,0,0,35.47,216c-.38,1-.1,2.25.84,3.87,3.31,5.73,16.94,6.73,17.08,6.74a.47.47,0,0,1,.43.33.5.5,0,0,1-.15.53c-.1.07-9.38,7.77-8.42,12.63.3,1.47,1.58,2.55,3.81,3.23a6.35,6.35,0,0,0,3.69,0h0C61,241,66.7,223,67.62,219.94Z"/><path class="cls-8" d="M94.55,129.16a65.49,65.49,0,0,1,58.77-5.3A65.53,65.53,0,0,1,199.39,87c45-9.61,72.37,37.21,62.58,76.72-8.81,35.57-28,69.13-49.05,101-.6.91-1.21,1.83-1.83,2.75l-3.22-.72c-37.27-8.4-74.35-19.33-105.34-38.88C68.12,206.12,55.45,153.36,94.55,129.16Z"/><path class="cls-9" d="M210.88,268.39l-3.23-.72c-60.4-13.61-88.18-28-105.63-39-19.87-12.53-32.65-35-32.55-57.23.08-18,8.8-33.34,24.57-43.1a66.19,66.19,0,0,1,58.79-5.7,66.2,66.2,0,0,1,41.54-35.4c1.58-.45,3.19-.86,4.81-1.2,18.13-3.89,35,1.11,47.58,14.07,15.46,16,21.81,41,16.16,63.82-5,20-15,49.65-49.19,101.3q-.9,1.38-1.83,2.76a1,1,0,0,1-.54.39A.86.86,0,0,1,210.88,268.39ZM154.2,124.27a1,1,0,0,1-1.23.5A64.3,64.3,0,0,0,95.06,130c-15.18,9.4-23.58,24.12-23.65,41.46C71.32,192.69,84,215,103.05,227c17.32,10.93,44.91,25.21,105,38.75l2.57.58,1.46-2.2c34-51.4,44-80.81,48.92-100.69,5.41-21.83-.89-46.75-15.67-62C233.3,89,217,84.19,199.59,87.92c-1.58.34-3.15.74-4.68,1.18A64.36,64.36,0,0,0,154.2,124.27Z"/><path class="cls-10" d="M70.83,178.22a74.92,74.92,0,0,0,26.42,40.42C118,234.71,146.11,241,172,239.31c13.25-.88,26.59-3.85,38.33-10.22A90.06,90.06,0,0,0,239.13,204c7.74-10.25,14.47-21.82,17.84-34.29a95.48,95.48,0,0,0,2-38.63,69.4,69.4,0,0,0-8.9-25.71c12.12,15.53,17,37.92,11.94,58.35-8.81,35.57-28,69.13-49.05,101-.6.91-1.21,1.83-1.83,2.75l-3.22-.72c-37.27-8.4-74.35-19.33-105.34-38.88C85,216.75,73.06,197.56,70.83,178.22Z"/><path class="cls-11" d="M192.53,117.1c3.71,3.49,10,4.86,14.95,5.18,5.8.38,12.68-.27,17.73-3.41s8-8.89,5.35-14.62a22.25,22.25,0,0,0-11.32-11.19c-5.32-2.13-11-3-16.58-1.27-2.92.88-6.18,2-8.56,4a15.72,15.72,0,0,0-5.07,7.32A13.19,13.19,0,0,0,192.53,117.1Z"/><path class="cls-11" d="M233.23,121.6a3.78,3.78,0,0,0,2.25.78,4.67,4.67,0,0,0,2.68-.51,1.75,1.75,0,0,0,.81-2.21,3.37,3.37,0,0,0-1.71-1.68,3.78,3.78,0,0,0-2.5-.2,4,4,0,0,0-1.29.61,2.44,2.44,0,0,0-.77,1.1A2,2,0,0,0,233.23,121.6Z"/><path class="cls-10" d="M117.12,133.52a15.83,15.83,0,0,0-8.19-3.49,25.56,25.56,0,0,0-9.38,1.19c-5.63,1.55-10,5.29-13.34,9.93a22.3,22.3,0,0,0-3.61,15.51c.78,6.28,6.49,9.54,12.34,9.5s12.11-3.16,16.81-6.58c4-2.9,8.61-7.43,9.88-12.36A13.22,13.22,0,0,0,117.12,133.52Z"/><path class="cls-10" d="M88.94,170.69a2.35,2.35,0,0,0-1.24-.52,3.56,3.56,0,0,0-1.41.18,3.67,3.67,0,0,0-2,1.49,3.35,3.35,0,0,0-.55,2.34,1.74,1.74,0,0,0,1.86,1.44,4.67,4.67,0,0,0,2.54-1,3.83,3.83,0,0,0,1.49-1.86A2,2,0,0,0,88.94,170.69Z"/><path class="cls-10" d="M170.48,169.64c1.16,2.61,3.45,4.13,5.13,3.39s2.1-3.46.95-6.07-3.45-4.13-5.13-3.39S169.33,167,170.48,169.64Z"/><path class="cls-3" d="M172.28,166.42l134.43-63.54,1.72,3.64L173.88,170.11C173.34,168.89,172.81,167.66,172.28,166.42Z"/><path class="cls-5" d="M173.71,170.57a.49.49,0,0,1-.27-.26c-.54-1.23-1.08-2.46-1.6-3.7a.48.48,0,0,1,.24-.63L306.5,102.44a.53.53,0,0,1,.37,0,.55.55,0,0,1,.28.26l1.72,3.63a.49.49,0,0,1-.24.65L174.09,170.55l-.07,0A.47.47,0,0,1,173.71,170.57Zm132.77-67L172.91,166.66c.4.94.81,1.87,1.22,2.8l133.65-63.17Z"/><path class="cls-6" d="M293.36,93.17s30.37.08,29,5.21-20.66,25.7-24.44,21.81S282.7,92.8,293.36,93.17Z"/><path class="cls-7" d="M297.57,120.53c-3-3-10.63-17.88-8.87-24.56a4.23,4.23,0,0,1,4.67-3.29c2.65,0,26,.19,29.12,4.27a1.7,1.7,0,0,1,.34,1.55c-1.2,4.55-15.82,20.57-22.38,22.47h0A2.72,2.72,0,0,1,297.57,120.53Zm-7.93-24.31c-1.65,6.25,5.84,20.77,8.62,23.63.37.38,1,.44,1.92.18h0c6.16-1.78,20.58-17.49,21.71-21.77a.77.77,0,0,0-.17-.73c-2.39-3.12-21.28-3.85-28.37-3.87a4.62,4.62,0,0,0-1.54.16A3.07,3.07,0,0,0,289.64,96.22Z"/><path class="cls-12" d="M304.51,96.53s12.32,0,11.76,2.12-8.38,10.42-9.91,8.84S300.19,96.38,304.51,96.53Z"/><circle class="cls-3" cx="254.42" cy="215" r="38.39"/><text class="cls-13" transform="translate(238.74 236.84)">5</text><text class="cls-14" transform="translate(73.07 123.89) rotate(-158.17)">PACK D’AMOUR</text></g></g></g></svg>