<svg xmlns="http://www.w3.org/2000/svg" xmlns:xlink="http://www.w3.org/1999/xlink" viewBox="0 0 110.17 110.58"><defs><style>.cls-1{isolation:isolate;}.cls-2{fill:url(#linear-gradient);}.cls-3,.cls-4,.cls-5,.cls-6,.cls-7{fill:#fff;}.cls-4{opacity:0.6;}.cls-4,.cls-5{mix-blend-mode:multiply;}.cls-6{opacity:0.9;}.cls-6,.cls-7{mix-blend-mode:screen;}.cls-7{opacity:0.5;}</style><linearGradient id="linear-gradient" y1="55.29" x2="110.17" y2="55.29" gradientUnits="userSpaceOnUse"><stop offset="0" stop-color="#001f3d"/><stop offset="0.33" stop-color="#001d3a"/><stop offset="0.57" stop-color="#001831"/><stop offset="0.79" stop-color="#000e21"/><stop offset="0.98" stop-color="#00010a"/><stop offset="1" stop-color="#000008"/></linearGradient></defs><g class="cls-1"><g id="Layer_2" data-name="Layer 2"><g id="Layer_1-2" data-name="Layer 1"><path class="cls-2" d="M110.17,55.23c0,30.56-24.71,55.65-55.21,55.35C24.15,110.28-.13,86.35,0,55S24.68,0,55.18,0A55,55,0,0,1,110.17,55.23Z"/><path class="cls-3" d="M12.44,56.08a3.3,3.3,0,0,1,.78.47c-.12-.15-.24-.29-.34-.44s-1.4-2.29-.61-2.16A10.08,10.08,0,0,1,16,55.69a8.14,8.14,0,0,1,1.45,1.23,6.32,6.32,0,0,1,.68.84,3,3,0,0,1,.09-.56c.06-.2.35-1.07.71-.78s.46.9.65,1.27a5.6,5.6,0,0,0,1.56,1.76,16.93,16.93,0,0,0,2.09,1.4,19,19,0,0,0,2.49,1c.74.27,1.5.45,2.22.75a8.18,8.18,0,0,1,1.67,1l.07,0a9.31,9.31,0,0,1,1.76,1.44,8.59,8.59,0,0,1,1.45,1.84c.38.71.67,1.39,1,2.13.78,1.93.13,4.19-.53,6.06a17.82,17.82,0,0,1-1.8,3.73A12.29,12.29,0,0,1,30,80.75,5.14,5.14,0,0,1,28,82.2a.36.36,0,0,1-.33,0v0A.93.93,0,0,1,27.83,81c0-.1.06-.19.1-.28l-.3.35c-.56.66-1.2,1.56-2.18,1.38-.55-.11-.47-1.35-.44-1.7a7.58,7.58,0,0,1,.39-1.7l-.29.37c-.23.28-.92,1.14-1.38.75A1.38,1.38,0,0,1,23.38,79a8.27,8.27,0,0,1,.45-2.12,6.78,6.78,0,0,1-.89,1,.09.09,0,0,0-.06,0,.85.85,0,0,1-.34.21c-.4-.23-.27-1.05-.26-1.42a3.39,3.39,0,0,1,.44-1.52,4.24,4.24,0,0,1-1.94.15,11.34,11.34,0,0,1-1.52-.3,2.7,2.7,0,0,1-.94-.33c-.39-.33-.12-.78.09-1.16a2,2,0,0,1,1-.86,3.75,3.75,0,0,1-1.27-.61c-.31-.24-.2-.48.12-.62a2.5,2.5,0,0,1,1.06-.14,11.62,11.62,0,0,1-1.3-.57,4.47,4.47,0,0,1-1.91-1.58,1.16,1.16,0,0,1-.24-.81c0-.28.58-.16.74-.14l.31.05a4.8,4.8,0,0,1-1.56-1.33c-.32-.45.09-.59.46-.63a5.84,5.84,0,0,1-1.63-1.67c-.09-.14-.72-1.31-.26-1.35a.8.8,0,0,1,.36.07l-.13-.14a9,9,0,0,1-1.56-2.52c-.14-.33-.6-1.42,0-1.59.15,0,.39.12.63.34a5.79,5.79,0,0,1-1.07-2.15C12.05,57,11.88,55.91,12.44,56.08Z"/><path class="cls-3" d="M23.68,78.22c-.07.4-.37,2.13.58,1.62a4,4,0,0,0,1.15-1.24l.06-.07.32-.33c-.24-.3-.11-.7,0-1.08a10.34,10.34,0,0,1,.41-1.64c-.28.26-.57.49-.86.72s-.7.66-1,.53a.31.31,0,0,1-.18-.25v0C24,77,23.8,77.62,23.68,78.22Z"/><path class="cls-3" d="M18.47,72.07a6.53,6.53,0,0,0,1.13.38,1.31,1.31,0,0,0,.27.06l.15,0a7.53,7.53,0,0,0-.92.68l-.16.13a.46.46,0,0,1-.07.07l-.21.19a.11.11,0,0,0,0,.12,1.77,1.77,0,0,0-.21.41c-.22.5.15.53.53.65a9.42,9.42,0,0,0,2.17.39,4.73,4.73,0,0,0,1.64-.24,2.3,2.3,0,0,1,.45.05l-.14.09a4.13,4.13,0,0,0-.57,2,3.11,3.11,0,0,0-.05.8.13.13,0,0,0,.21.07,4.94,4.94,0,0,0,.74-1c.31-.39.66-.85.73-.9a8,8,0,0,1,.5-2,6.27,6.27,0,0,1,.61-1.4,4.8,4.8,0,0,1-1.69.24,5.66,5.66,0,0,1-2.9-.75,3.58,3.58,0,0,1-.57-.49,2.47,2.47,0,0,0-.44,0C19.37,71.53,17.71,71.69,18.47,72.07Z"/><path class="cls-3" d="M12.32,57.23c.12,1.37,1.4,2.63,2.36,3.49h0c-.28-.17-.55-.35-.81-.53l-.28-.28c-.39-.33-.89-.68-1-.45-.33.47.38,1.57.58,2a8.72,8.72,0,0,0,1.24,1.76c.11.13.23.25.34.37l.09.05.9.5c-.15-.23-.27-.53,0-.51a2.18,2.18,0,0,1,.69.28l.34.19a3.12,3.12,0,0,0-.74-.26.13.13,0,0,0-.17.11.93.93,0,0,0,.45.65l.23.26a9,9,0,0,0,3.63,2c.3-.14.74,0,1.05.08l.59.09c.27.08.55.18.82.28l.24.12-.28,0A18.33,18.33,0,0,0,20.73,67c-.13,0-.32,0-.36.14h0a.2.2,0,0,0,0,.1.15.15,0,0,0,0,.06.63.63,0,0,0,.16.23c.13.18.26.32.14.17a4.67,4.67,0,0,0,1.21,1,6.19,6.19,0,0,0,4.75.49,3.2,3.2,0,0,1-2.06.55,6,6,0,0,1-.85-.09,7,7,0,0,1-2.67-1.28,4.47,4.47,0,0,1-1-1.25,8.69,8.69,0,0,1-4.18-2.7l-.16-.21a13.06,13.06,0,0,0-1.23-.48l-.32-.11h0a.13.13,0,0,0-.11.15.36.36,0,0,0,0,.4,2.69,2.69,0,0,0,.55.86,5.6,5.6,0,0,0,1.67,1.29,4.71,4.71,0,0,1,.91.17,4.52,4.52,0,0,1,1.16.5c-.49-.17-1-.26-1.51-.38a1.38,1.38,0,0,0-1,0c-.31,0-.51.18-.22.49a5,5,0,0,0,1.56,1.13,5.39,5.39,0,0,1,.6.37c.18.13.34.27.5.41l-.77-.28a4.5,4.5,0,0,0-1.09-.23c-.81-.08,0,.94.21,1.17a6.8,6.8,0,0,0,2.77,1.47l.39.2c-.08-.15-.09-.28.09-.35a4.08,4.08,0,0,1,1.44,0l1.1,0,.06,0-.33,0c-.59.07-1.18,0-1.77.08-.21,0-.31.07-.33.14s-.08,0-.07,0l.11.15h.05a.53.53,0,0,0,.13.13h0a3.54,3.54,0,0,0,1.19.61,5.15,5.15,0,0,0,4.24-.28c-.15.36-.32.7-.46,1.06a10.37,10.37,0,0,0-.46,1.19,7.46,7.46,0,0,0-.47,2.23,4.61,4.61,0,0,0,1.06-.77,8.49,8.49,0,0,0,1-1,5,5,0,0,0,.6-.79A5.53,5.53,0,0,0,28,72.6a5.5,5.5,0,0,1-1.17,2.21.11.11,0,0,1,0,0c-.16.52-.43,1-.59,1.5-.08.27-.13.54-.19.81,0,.08,0,.16-.05.25a2,2,0,0,0-.15.54.12.12,0,0,0,.18.12,3.86,3.86,0,0,0,1.25-1.23,11.12,11.12,0,0,0,.82-1.16,5.24,5.24,0,0,1-1,1.67c-.15.19-.8,1.09-1.17,1-.17.43-.33.87-.46,1.32s-.74,3.08.68,2.37a5.78,5.78,0,0,0,1.4-1.35l.23-.27c.39-.41.77-.83,1.14-1.25-.17.39-.35.77-.53,1.16a.06.06,0,0,1,0,0c-.13.25-.25.49-.35.74,0,.07-.26.78-.25.78a4.62,4.62,0,0,0,1.59-1.11A14.58,14.58,0,0,0,32,77.39a15.26,15.26,0,0,0,1.41-3.3,7.35,7.35,0,0,0,0-5.33,8.28,8.28,0,0,0-.57-1.25A13.4,13.4,0,0,0,29.7,63.9a13.34,13.34,0,0,0-3.84-1.69,18.18,18.18,0,0,1-3.31-1.48A12.16,12.16,0,0,1,20,58.65a4.86,4.86,0,0,1-.74-1.16c-.09-.18-.16-.37-.24-.55-.14-.38-.4.26-.45.39a2.13,2.13,0,0,0-.15,1v0h0a2.8,2.8,0,0,0,.29,1c.82,1.33,2.46,2.12,3.81,2.82,1.6.83,3.23,1.68,4.75,2.65a8.44,8.44,0,0,1,4.27,8s-.08,0-.08-.07a8.24,8.24,0,0,0-1.66-5.38,13.7,13.7,0,0,0-4.68-3.46c-.79-.41-1.57-.83-2.35-1.27a19.06,19.06,0,0,1-2.38-1.33c-1.05-.81-2.07-1.64-2.27-3,0,0,0,0,0,0V58a10.15,10.15,0,0,0-4.83-3.52c-.17-.06-1.22-.48-1,0A7,7,0,0,0,13,56a8.66,8.66,0,0,0,1.71,1.71,5,5,0,0,1,1.34.58,15.08,15.08,0,0,1,1.31.91c.05,0,.13.1.1.13l0,0s-.05,0-.06,0a5.77,5.77,0,0,0-2.08-1.16c-.2-.07-.78-.35-.54.13a8.37,8.37,0,0,0,.57,1,16.83,16.83,0,0,0,3,3.07,2.89,2.89,0,0,1,1,.19,12.93,12.93,0,0,1,1.57.81l-.35-.13c-.32-.14-.62-.3-.95-.42a2,2,0,0,0-.9-.23c-.36,0-.25.33-.07.53h0a6.3,6.3,0,0,0,.47.64,8,8,0,0,0,1.06,1,7.15,7.15,0,0,0,1.35.89,7.28,7.28,0,0,0,1.12.68,7.35,7.35,0,0,1-4.44-3.56c-.11-.21-.1-.33,0-.39a13.42,13.42,0,0,1-2.49-2.33,13.49,13.49,0,0,1-1.1-1.68c-.1-.18-.26-.45-.17-.67,0,0,0,0,0,0l-.18-.08a6.73,6.73,0,0,1-.72-.69,5.83,5.83,0,0,0-.69-.39.6.6,0,0,0-.52-.1C12.2,56.65,12.3,57,12.32,57.23Z"/><path class="cls-4" d="M12.11,57.29a5.79,5.79,0,0,0,1.07,2.15c-.24-.22-.48-.38-.63-.34-.57.17-.11,1.26,0,1.59a9,9,0,0,0,1.56,2.52l.13.14a.8.8,0,0,0-.36-.07c-.46,0,.17,1.21.26,1.35A5.84,5.84,0,0,0,15.8,66.3c-.37,0-.78.18-.46.63a4.8,4.8,0,0,0,1.56,1.33l-.31-.05c-.16,0-.7-.14-.74.14a1.16,1.16,0,0,0,.24.81A4.47,4.47,0,0,0,18,70.74a11.62,11.62,0,0,0,1.3.57,2.5,2.5,0,0,0-1.06.14c-.32.14-.43.38-.12.62a3.75,3.75,0,0,0,1.27.61,2,2,0,0,0-1,.86c-.21.38-.48.83-.09,1.16a2.7,2.7,0,0,0,.94.33,11.34,11.34,0,0,0,1.52.3,4.24,4.24,0,0,0,1.94-.15,3.39,3.39,0,0,0-.44,1.52c0,.37-.14,1.19.26,1.42a.85.85,0,0,0,.34-.21.09.09,0,0,1,.06,0,6.78,6.78,0,0,0,.89-1A8.27,8.27,0,0,0,23.38,79a1.38,1.38,0,0,0,.35,1.24c.46.39,1.15-.47,1.38-.75l.29-.37a7.58,7.58,0,0,0-.39,1.7c0,.35-.11,1.59.44,1.7,1,.18,1.62-.72,2.18-1.38l.3-.35c0,.09-.06.18-.1.28a.93.93,0,0,0-.15,1.17v0a.36.36,0,0,0,.33,0A5.14,5.14,0,0,0,30,80.75a12.29,12.29,0,0,0,1.58-1.94,17.82,17.82,0,0,0,1.8-3.73C34,73.21,34.66,71,33.88,69l-.06-.14a9.68,9.68,0,0,1,0,2.22A9.32,9.32,0,0,1,31,76.74c-.15.14-.33-.06-.25-.22a8.78,8.78,0,0,0-3-12c-2.16-1.51-4.69-2.41-6.83-4a4.83,4.83,0,0,1-2.09-4.17c-.3,0-.52.67-.58.84a3,3,0,0,0-.09.56,6.32,6.32,0,0,0-.68-.84A5.66,5.66,0,0,0,17,56.5a5,5,0,0,1,.79,2,.16.16,0,0,1-.21.19,13.1,13.1,0,0,1-3.47-2.23A5.22,5.22,0,0,1,12.21,54c-.65,0,.48,1.9.67,2.16s.22.29.34.44a3.3,3.3,0,0,0-.78-.47C11.88,55.91,12.05,57,12.11,57.29Zm3.2,1.25a.17.17,0,0,1,.22-.15c2.2.6,3.81,2.3,5.6,3.6,2.82,1.53,5.83,2.8,8,5.26s2.4,6.54.32,9c-.09.11-.32.08-.3-.1a14.73,14.73,0,0,0,.16-3.1,10.74,10.74,0,0,1-1.77,3,.17.17,0,0,1-.3-.15,12.29,12.29,0,0,0,.95-4.82,11.53,11.53,0,0,1-.62,1.39A4.06,4.06,0,0,1,26,74.42a.17.17,0,0,1-.24-.11c-.28-1,.41-2.35.67-3.35a8.41,8.41,0,0,1,.88-2.29c-1.6.49-3.48,0-5.05-.45a.16.16,0,0,1,0-.3,10.85,10.85,0,0,1,2.27-.44l.3,0a13.33,13.33,0,0,1-1.47-.78,11.5,11.5,0,0,1-3.54-3,.17.17,0,0,1,0-.24c.24-.21.87,0,1.15.09a5.49,5.49,0,0,1,.7.17,4.49,4.49,0,0,0-1.85-1,10.68,10.68,0,0,1-2.25-1.23C16.66,60.8,15.29,59.75,15.31,58.54Z"/><path class="cls-4" d="M12.44,56.08a3.3,3.3,0,0,1,.78.47c-.12-.15-.24-.29-.34-.44s-1.23-2-.73-2.15a5.67,5.67,0,0,0,2,3.38,1.45,1.45,0,0,0-.68-.1c-.68.1-.15,1.21,0,1.49a22.46,22.46,0,0,0,2.09,2.88A3.61,3.61,0,0,0,14.08,61a.16.16,0,0,0-.17.2,4.8,4.8,0,0,0,1.86,2.91,2.21,2.21,0,0,0-1-.13.15.15,0,0,0-.12.19c.15,1,1.21,1.63,2,2a7.51,7.51,0,0,0,1.94.55c-.49.1-1.15-.21-1.52.18s.92,1.28,1.18,1.42a16.85,16.85,0,0,0,2.25,1l-.87-.14a2.62,2.62,0,0,0-1.52,0,.17.17,0,0,0-.07.22c.38.94,1.69,1.07,2.55,1.24.44.09.88.17,1.33.24a5.72,5.72,0,0,0-.6.25.16.16,0,0,0-.05.25c.53.76,1.79.65,2.6.63a5.48,5.48,0,0,0,1.78-.27c0,1.53-4.46,1.27-5.39,1.51a.17.17,0,0,0-.13.2c.16.89,1.38,1,2.11,1A4.24,4.24,0,0,0,24.4,74a8.6,8.6,0,0,0-1.52,2.45.17.17,0,0,0,.23.2,4.06,4.06,0,0,0,1-.78.71.71,0,0,0,.2.73c.2.14.46-.07.61-.18.33-.27.68-.5,1-.77l.54-.49a9.17,9.17,0,0,0-.61,2c-.06.35-.24,1,.38.86a2.58,2.58,0,0,0,1.36-1,18.14,18.14,0,0,0-.87,1.9c-.14.39-.79,1.79-.08,2s1.7-1.17,2-1.61a11.12,11.12,0,0,0,.86-1.29,25.82,25.82,0,0,0-.81,2.54.15.15,0,0,0,.16.17,2.06,2.06,0,0,0,1.43-.76,13.52,13.52,0,0,0,1.56-1.56l-.31.5A12.29,12.29,0,0,1,30,80.75,5.14,5.14,0,0,1,28,82.2a.36.36,0,0,1-.33,0v0A.93.93,0,0,1,27.83,81c0-.1.06-.19.1-.28l-.3.35c-.56.66-1.2,1.56-2.18,1.38-.55-.11-.47-1.35-.44-1.7a7.58,7.58,0,0,1,.39-1.7l-.29.37c-.23.28-.92,1.14-1.38.75A1.38,1.38,0,0,1,23.38,79a8.27,8.27,0,0,1,.45-2.12,6.78,6.78,0,0,1-.89,1,.09.09,0,0,0-.06,0,.85.85,0,0,1-.34.21c-.4-.23-.27-1.05-.26-1.42a3.39,3.39,0,0,1,.44-1.52,4.24,4.24,0,0,1-1.94.15,11.34,11.34,0,0,1-1.52-.3,2.7,2.7,0,0,1-.94-.33c-.39-.33-.12-.78.09-1.16a2,2,0,0,1,1-.86,3.75,3.75,0,0,1-1.27-.61c-.31-.24-.2-.48.12-.62a2.5,2.5,0,0,1,1.06-.14,11.62,11.62,0,0,1-1.3-.57,4.47,4.47,0,0,1-1.91-1.58,1.16,1.16,0,0,1-.24-.81c0-.28.58-.16.74-.14l.31.05a4.8,4.8,0,0,1-1.56-1.33c-.32-.45.09-.59.46-.63a5.84,5.84,0,0,1-1.63-1.67c-.09-.14-.72-1.31-.26-1.35a.8.8,0,0,1,.36.07l-.13-.14a9,9,0,0,1-1.56-2.52c-.14-.33-.6-1.42,0-1.59.15,0,.39.12.63.34a5.79,5.79,0,0,1-1.07-2.15C12.05,57,11.88,55.91,12.44,56.08Z"/><path class="cls-3" d="M79,27.52a5.72,5.72,0,0,1,1,2.17c0-.32,0-.61.13-.7.49-.35,1.06.69,1.23,1a9,9,0,0,1,1,2.78l0,.19a1,1,0,0,1,.17-.32c.31-.34.84.88.9,1A5.81,5.81,0,0,1,83.85,36c.26-.27.62-.5.78,0a4.76,4.76,0,0,1,.08,2.06,1.59,1.59,0,0,1,.15-.29c.08-.13.32-.63.57-.49a1.15,1.15,0,0,1,.48.69A4.45,4.45,0,0,1,86,40.46a10.58,10.58,0,0,1-.35,1.37,2.44,2.44,0,0,1,.76-.74c.3-.17.57-.11.56.28a3.81,3.81,0,0,1-.3,1.38,2,2,0,0,1,1.28-.24c.43.07.95.14,1,.65a2.69,2.69,0,0,1-.32.94,11.22,11.22,0,0,1-.71,1.38,4.06,4.06,0,0,1-1.32,1.44A3.32,3.32,0,0,1,88,47.5c.3.22,1,.64,1,1.09a.88.88,0,0,1-.38.14l-.06,0a5.74,5.74,0,0,1-1.37,0,8.63,8.63,0,0,1,2,1,1.38,1.38,0,0,1,.75,1c0,.6-1.07.61-1.44.62H88a7.33,7.33,0,0,1,1.57.75c.3.19,1.32.89,1.06,1.39-.45.89-1.56.83-2.43.87h-.46l.28.1a1.7,1.7,0,0,1,.76.22,2,2,0,0,1,.25.39h0a.39.39,0,0,1-.19.28,5.25,5.25,0,0,1-2.34.64,13.06,13.06,0,0,1-2.5,0,18.2,18.2,0,0,1-4-.88c-1.87-.64-4.06-1.53-5.09-3.34a21.44,21.44,0,0,1-1.07-2.08,8,8,0,0,1-.55-2.28,9.58,9.58,0,0,1,0-2.27s0,0,0-.08a8.8,8.8,0,0,1,.27-1.91c.22-.75.54-1.46.78-2.21A19.49,19.49,0,0,0,75,38.47a16.11,16.11,0,0,0,.2-2.5,5.56,5.56,0,0,0-.42-2.32c-.18-.38-.59-.85-.6-1.29s.85-.15,1-.08a2.4,2.4,0,0,1,.5.28,6.63,6.63,0,0,1-.25-1.06,9.27,9.27,0,0,1-.07-1.9,10.12,10.12,0,0,1,.94-4c.39-.7,1.24,1.5,1.33,1.82s.09.35.13.53a3.11,3.11,0,0,1,.12-.9C78.1,26.49,78.85,27.3,79,27.52Z"/><path class="cls-3" d="M86.69,48.8l0,0a.3.3,0,0,1,.09.3c-.1.33-.76.39-1,.47s-.72.17-1.09.23a10.48,10.48,0,0,1,1.54.69c.35.16.74.31.84.68l.45,0h.1A4,4,0,0,0,89.27,51c1-.44-.55-1.27-.92-1.46C87.81,49.27,87.26,49,86.69,48.8Z"/><path class="cls-3" d="M85.58,42.24a3.51,3.51,0,0,0-.23.37,3.47,3.47,0,0,1,0,.75,5.64,5.64,0,0,1-1.2,2.75A5,5,0,0,1,83,47.29a6.06,6.06,0,0,1,1.48.38,7.85,7.85,0,0,1,1.91.87,11.17,11.17,0,0,1,1.16,0,5.65,5.65,0,0,0,1.23,0c.08,0,.14-.14.07-.2a2.52,2.52,0,0,0-.66-.46,4.05,4.05,0,0,0-1.93-.79l-.15.06a3.64,3.64,0,0,1,.23-.39,4.52,4.52,0,0,0,1.21-1.14,9.57,9.57,0,0,0,1-1.95c.14-.37.35-.67-.18-.82l-.45-.09a.13.13,0,0,0-.12,0l-.28.05h-.1l-.2,0a7.21,7.21,0,0,0-1.1.31l.12-.1.12-.26a6.46,6.46,0,0,0,.39-1.12C86.91,40.82,85.76,42,85.58,42.24Z"/><path class="cls-3" d="M78.23,27.17a.6.6,0,0,0-.24.48,5.26,5.26,0,0,0-.12.78,8.3,8.3,0,0,1,.1,1,1.8,1.8,0,0,0,0,.19h0c.23.07.34.35.43.55a14.1,14.1,0,0,1,.63,1.9,12.94,12.94,0,0,1,.3,3.4c.1,0,.2,0,.3.25a7.3,7.3,0,0,1,0,5.69,7,7,0,0,0,.17-1.3A7.73,7.73,0,0,0,80,38.48,8.27,8.27,0,0,0,79.8,37a5.24,5.24,0,0,0-.21-.76h0c0-.27-.21-.53-.47-.27a2.1,2.1,0,0,0-.37.85c-.1.33-.17.67-.25,1l-.12.36a12.6,12.6,0,0,1,.34-1.73,3,3,0,0,1,.45-.89,16.54,16.54,0,0,0-.55-4.26,10.29,10.29,0,0,0-.4-1.05c-.23-.48-.37.15-.44.34a5.94,5.94,0,0,0-.38,2.36s0,.06,0,.06h0s-.09-.14,0-.15a12.25,12.25,0,0,1,.09-1.61,5.35,5.35,0,0,1,.37-1.41,8.74,8.74,0,0,0-.29-2.39A6.83,6.83,0,0,0,76.75,26c-.26-.45-.57.63-.63.8a10.06,10.06,0,0,0-.22,6l0,0s0,0,0,0c1,1,1,2.33,1,3.66a19.17,19.17,0,0,1-.42,2.7c-.14.88-.29,1.75-.45,2.63A13.57,13.57,0,0,0,76,47.58a8.23,8.23,0,0,0,3.2,4.63s0,.14,0,.11a8.45,8.45,0,0,1-3.63-8.27c.18-1.8.52-3.61.86-5.38.28-1.49.67-3.27.13-4.73a2.8,2.8,0,0,0-.57-.82h0a1.93,1.93,0,0,0-.84-.47c-.13,0-.79-.24-.59.11a3.92,3.92,0,0,1,.29.53,5.1,5.1,0,0,1,.46,1.29,12.58,12.58,0,0,1,.06,3.3,17.71,17.71,0,0,1-.89,3.51,13.39,13.39,0,0,0-1,4.07,13.44,13.44,0,0,0,.86,4.74,8.67,8.67,0,0,0,.63,1.21,9.14,9.14,0,0,0,1.23,1.54,9.2,9.2,0,0,0,3,1.74,15.54,15.54,0,0,0,3.48.92,14.49,14.49,0,0,0,4.26.07,4.64,4.64,0,0,0,1.86-.57s-.69-.27-.76-.29c-.27-.07-.53-.13-.8-.18,0,0,0,0,0,0l-1.24-.3c.57,0,1.13-.07,1.69-.12l.35,0a5.73,5.73,0,0,0,1.94-.27c1.43-.67-.88-1.76-1.46-2-.43-.17-.87-.32-1.31-.45-.15.35-1.26.31-1.5.31a5.35,5.35,0,0,1-1.92-.27,11.16,11.16,0,0,0,1.42.07,3.77,3.77,0,0,0,1.74-.22.12.12,0,0,0,0-.21,2.42,2.42,0,0,0-.52-.23l-.22-.11c-.25-.12-.5-.24-.76-.34-.5-.2-1-.28-1.54-.47,0,0,0,0,0,0a5.55,5.55,0,0,1-2.46-.44,5.8,5.8,0,0,0,1.61.06,4.66,4.66,0,0,0,1,0,9.35,9.35,0,0,0,1.39-.22A4.34,4.34,0,0,0,86.52,49a7.33,7.33,0,0,0-2-1,10.87,10.87,0,0,0-1.22-.37c-.37-.11-.75-.19-1.12-.29A5.19,5.19,0,0,0,85,44.13a3.72,3.72,0,0,0,.25-1.31l0,0a1.1,1.1,0,0,0,0-.18s0,0,0,0a1,1,0,0,0,0-.18s0,0-.09,0-.17,0-.31.17c-.4.44-.73.93-1.16,1.35l-.23.23,0,0c.22-.3.42-.61.64-.91A4.13,4.13,0,0,1,85,42.15c.16-.1.26,0,.33.15,0-.14,0-.29.07-.43a6.82,6.82,0,0,0,.57-3.09c0-.34-.36-1.57-.8-.89a5.45,5.45,0,0,0-.49,1c-.09.26-.17.52-.25.78,0-.21,0-.43,0-.64s0-.48.08-.71a4.77,4.77,0,0,0,.08-1.92c-.07-.42-.3-.35-.53-.13a1.43,1.43,0,0,0-.59.76c-.21.46-.46.93-.63,1.41a4,4,0,0,1,.32-1.21,5,5,0,0,1,.43-.83,5.35,5.35,0,0,0,0-2.11,2.55,2.55,0,0,0-.33-1,.38.38,0,0,0-.28-.29.14.14,0,0,0-.19,0h0a1.73,1.73,0,0,0-.11.32c-.14.42-.28.83-.38,1.26,0,.12.06.22.07.26a8.75,8.75,0,0,1-.46,5,4.42,4.42,0,0,1,.37,1.55,7.09,7.09,0,0,1-.64,2.89,5.88,5.88,0,0,1-.46.72,3.21,3.21,0,0,1-1.7,1.29,6.22,6.22,0,0,0,2.55-4,4.62,4.62,0,0,0,0-1.53c0,.19,0,0,0-.21a.71.71,0,0,0-.09-.28l0,0a.12.12,0,0,0-.07-.07h0c-.13,0-.27.09-.34.2A17.13,17.13,0,0,0,80.55,42l-.15.24.06-.26c.08-.28.18-.55.28-.83a5.24,5.24,0,0,1,.3-.51c.17-.27.28-.73.58-.87a9,9,0,0,0,.65-4.1l-.06-.35a.87.87,0,0,0-.24-.75c-.07-.06-.15,0-.18.06a3.4,3.4,0,0,0-.26.74c0-.13,0-.26.07-.38a2.27,2.27,0,0,1,.2-.72c.16-.22.31.06.4.32.06-.34.11-.68.16-1,0,0,0-.06,0-.1s0-.33-.08-.49a8.82,8.82,0,0,0-.62-2.07c-.19-.41-.62-1.65-1.19-1.68-.28,0-.32.6-.3,1.11,0,.13,0,.26,0,.39,0,.32,0,.64-.09,1v0c-.08-1.29-.28-3.07-1.28-4C78.7,27.49,78.48,27.2,78.23,27.17Z"/><path class="cls-4" d="M77.89,27a3.11,3.11,0,0,0-.12.9c0-.18-.08-.36-.13-.53s-.89-2.38-1.29-1.86a5.18,5.18,0,0,1,.78,3.06,13.14,13.14,0,0,1-.39,4.1.17.17,0,0,1-.28.06,5,5,0,0,1-1.08-1.86q0,.3.06.6a6.63,6.63,0,0,0,.25,1.06,2.4,2.4,0,0,0-.5-.28c-.17-.06-.86-.31-1-.06a4.82,4.82,0,0,1,2,4.22c-.12,2.63-1,5.17-1.11,7.8A8.78,8.78,0,0,0,82.66,54c.18,0,.22.3,0,.33a9.23,9.23,0,0,1-6.21-1.21,9,9,0,0,1-1.72-1.41.83.83,0,0,0,.07.13c1,1.81,3.22,2.7,5.09,3.34a18.2,18.2,0,0,0,4,.88,13.06,13.06,0,0,0,2.5,0,5.25,5.25,0,0,0,2.34-.64.39.39,0,0,0,.19-.28h0a2,2,0,0,0-.25-.39,1.7,1.7,0,0,0-.76-.22l-.28-.1h.46c.87,0,2,0,2.43-.87.26-.5-.76-1.2-1.06-1.39A7.33,7.33,0,0,0,88,51.42h.46c.37,0,1.46,0,1.44-.62a1.38,1.38,0,0,0-.75-1,8.63,8.63,0,0,0-2-1,5.74,5.74,0,0,0,1.37,0l.06,0a.88.88,0,0,0,.38-.14c.07-.45-.66-.87-1-1.09a3.32,3.32,0,0,0-1.47-.58,4.06,4.06,0,0,0,1.32-1.44,11.22,11.22,0,0,0,.71-1.38,2.69,2.69,0,0,0,.32-.94c0-.51-.54-.58-1-.65a2,2,0,0,0-1.28.24,3.81,3.81,0,0,0,.3-1.38c0-.39-.26-.45-.56-.28a2.44,2.44,0,0,0-.76.74A10.58,10.58,0,0,0,86,40.46,4.45,4.45,0,0,0,85.91,38a1.15,1.15,0,0,0-.48-.69c-.25-.14-.49.36-.57.49a1.59,1.59,0,0,0-.15.29A4.76,4.76,0,0,0,84.63,36c-.16-.52-.52-.29-.78,0a5.81,5.81,0,0,0-.31-2.31c-.06-.16-.59-1.38-.9-1a1,1,0,0,0-.17.32l0-.19a9,9,0,0,0-1-2.78c-.17-.31-.74-1.35-1.23-1-.13.09-.15.38-.13.7a5.72,5.72,0,0,0-1-2.17C78.85,27.3,78.1,26.49,77.89,27Zm1,7.34a10.87,10.87,0,0,1-.41,2.53A4.46,4.46,0,0,0,78.2,39c.09-.22.18-.44.29-.65s.33-.9.65-1a.16.16,0,0,1,.19.13,11.36,11.36,0,0,1,.16,4.61,14.15,14.15,0,0,1-.31,1.64l.22-.21A12.08,12.08,0,0,1,81.15,42c.12-.07.28.08.23.21-.65,1.48-1.4,3.29-2.78,4.25a8.13,8.13,0,0,1,2.35.72c1,.41,2.41.67,3,1.54a.17.17,0,0,1-.06.26,4.13,4.13,0,0,1-2.46,0A10.68,10.68,0,0,1,80,48.67a12.19,12.19,0,0,0,4.38,2.23.17.17,0,0,1-.07.33,10.9,10.9,0,0,1-3.47-.47,15.26,15.26,0,0,0,2.54,1.79c.16.09,0,.29-.11.3C80,53,77,50.09,76.38,47s.25-6.35.78-9.51c.09-2.21-.25-4.53.64-6.63a.16.16,0,0,1,.25-.08C79,31.54,79,33.27,78.93,34.37Z"/><path class="cls-4" d="M77.89,27a3.11,3.11,0,0,0-.12.9c0-.18-.08-.36-.13-.53s-.82-2.21-1.24-1.91a5.76,5.76,0,0,1,1.41,3.69,1.33,1.33,0,0,1,.34-.6c.49-.48,1,.63,1.16.93a22.07,22.07,0,0,1,1,3.43,3.63,3.63,0,0,1,.48-1.57.17.17,0,0,1,.26,0,4.79,4.79,0,0,1,1.14,3.26,2.31,2.31,0,0,1,.51-.86.16.16,0,0,1,.23,0,3.21,3.21,0,0,1,.31,2.82,7.42,7.42,0,0,1-.76,1.86c.38-.32.55-1,1.08-1.08.69-.07.44,1.52.39,1.8a15.74,15.74,0,0,1-.62,2.38c.15-.25.29-.51.43-.76a2.67,2.67,0,0,1,.94-1.2.18.18,0,0,1,.22.08c.5.88-.2,2-.6,2.77-.2.4-.41.8-.63,1.19.19-.12.38-.22.56-.32a.17.17,0,0,1,.24.12c.26.89-.61,1.81-1.12,2.44A5.63,5.63,0,0,1,82,47.11c1.18,1,3.75-2.72,4.52-3.31a.16.16,0,0,1,.23,0c.6.68-.07,1.7-.52,2.27a4.45,4.45,0,0,1-1.71,1.39,8.36,8.36,0,0,1,2.86.31.17.17,0,0,1,0,.31,4.11,4.11,0,0,1-1.22.29c.25.14.47.33.45.61s-.34.32-.51.36c-.42.1-.82.24-1.23.32q-.36.07-.72.12a9.39,9.39,0,0,1,1.93.74c.31.17.93.43.43.83a2.53,2.53,0,0,1-1.64.43,19.81,19.81,0,0,1,2,.49c.4.13,1.9.49,1.63,1.18s-2,.62-2.51.61A11.44,11.44,0,0,1,84.51,54c.83.33,1.71.53,2.5.94a.16.16,0,0,1,0,.23,2.17,2.17,0,0,1-1.49.66,13.36,13.36,0,0,1-2.18.25l.58.07a13.06,13.06,0,0,0,2.5,0,5.25,5.25,0,0,0,2.34-.64.39.39,0,0,0,.19-.28h0a2,2,0,0,0-.25-.39,1.7,1.7,0,0,0-.76-.22l-.28-.1h.46c.87,0,2,0,2.43-.87.26-.5-.76-1.2-1.06-1.39A7.33,7.33,0,0,0,88,51.42h.46c.37,0,1.46,0,1.44-.62a1.38,1.38,0,0,0-.75-1,8.63,8.63,0,0,0-2-1,5.74,5.74,0,0,0,1.37,0l.06,0a.88.88,0,0,0,.38-.14c.07-.45-.66-.87-1-1.09a3.32,3.32,0,0,0-1.47-.58,4.06,4.06,0,0,0,1.32-1.44,11.22,11.22,0,0,0,.71-1.38,2.69,2.69,0,0,0,.32-.94c0-.51-.54-.58-1-.65a2,2,0,0,0-1.28.24,3.81,3.81,0,0,0,.3-1.38c0-.39-.26-.45-.56-.28a2.44,2.44,0,0,0-.76.74A10.58,10.58,0,0,0,86,40.46,4.45,4.45,0,0,0,85.91,38a1.15,1.15,0,0,0-.48-.69c-.25-.14-.49.36-.57.49a1.59,1.59,0,0,0-.15.29A4.76,4.76,0,0,0,84.63,36c-.16-.52-.52-.29-.78,0a5.81,5.81,0,0,0-.31-2.31c-.06-.16-.59-1.38-.9-1a1,1,0,0,0-.17.32l0-.19a9,9,0,0,0-1-2.78c-.17-.31-.74-1.35-1.23-1-.13.09-.15.38-.13.7a5.72,5.72,0,0,0-1-2.17C78.85,27.3,78.1,26.49,77.89,27Z"/><path class="cls-3" d="M52,76.32c.18.33.35.66.52,1L30.39,87.76l-.48-1Z"/><path class="cls-3" d="M30.27,87.82l-.48-1a.12.12,0,0,1,0-.1.27.27,0,0,1,.07-.08L51.92,76.19a.14.14,0,0,1,.18.06c.18.33.35.67.52,1a.12.12,0,0,1,0,.1s0,.07-.07.08L30.45,87.88h0A.14.14,0,0,1,30.27,87.82ZM51.92,76.49,30.09,86.81l.37.77L52.31,77.25C52.19,77,52.05,76.74,51.92,76.49Z"/><path class="cls-3" d="M26,85.15,31,86.69s-2.14,7.73-5.38,6.75,1.23-4.65,1.23-4.65-3.9-.27-4.87-2C20.39,84,26,85.15,26,85.15Z"/><path class="cls-3" d="M25.61,93.57c-.73-.22-1.15-.59-1.25-1.1-.25-1.26,1.53-3,2.19-3.58-1-.1-3.82-.53-4.65-2a1.52,1.52,0,0,1-.25-1.32,1.21,1.21,0,0,1,.86-.65A9.32,9.32,0,0,1,26,85l5.06,1.54a.14.14,0,0,1,.09.17c-.07.24-1.71,6.08-4.37,6.85h0A2,2,0,0,1,25.61,93.57Zm.33-8.29a9.32,9.32,0,0,0-3.35-.08,1,1,0,0,0-.69.49,1.28,1.28,0,0,0,.23,1.08c.92,1.6,4.73,1.88,4.76,1.88a.13.13,0,0,1,.12.09.13.13,0,0,1,0,.15s-2.62,2.17-2.35,3.52c.09.41.44.72,1.07.9a1.69,1.69,0,0,0,1,0h0c2.31-.66,3.89-5.67,4.15-6.54Z"/><path class="cls-3" d="M38.37,61.46A18.26,18.26,0,0,1,54.76,60,18.29,18.29,0,0,1,67.61,49.7C80.15,47,87.79,60.08,85.06,71.09,82.6,81,77.26,90.37,71.38,99.26l-.51.77-.9-.2C59.58,97.48,49.24,94.44,40.6,89,31,82.93,27.47,68.21,38.37,61.46Z"/><path class="cls-3" d="M70.81,100.29l-.9-.2C53.07,96.3,45.32,92.28,40.45,89.21a19.33,19.33,0,0,1-9.07-16,13.81,13.81,0,0,1,6.85-12,18.42,18.42,0,0,1,16.39-1.59,18.51,18.51,0,0,1,11.59-9.88c.44-.12.89-.24,1.34-.33a13.82,13.82,0,0,1,13.27,3.92,19.34,19.34,0,0,1,4.5,17.8C83.94,76.75,81.13,85,71.61,99.41l-.51.77a.33.33,0,0,1-.15.11ZM55,60.1a.28.28,0,0,1-.35.14A17.92,17.92,0,0,0,38.51,61.7a13.3,13.3,0,0,0-6.59,11.56,19,19,0,0,0,8.82,15.49c4.83,3,12.53,7,29.29,10.81l.72.16.41-.61C80.63,84.77,83.42,76.57,84.8,71a19,19,0,0,0-4.37-17.29A13.31,13.31,0,0,0,67.66,50c-.44.09-.87.2-1.3.32A18,18,0,0,0,55,60.1Z"/><path class="cls-5" d="M31.76,75.15a20.89,20.89,0,0,0,7.36,11.27C44.91,90.9,52.75,92.66,60,92.18a25.82,25.82,0,0,0,10.69-2.85,25.11,25.11,0,0,0,8-7,28.45,28.45,0,0,0,5-9.56A26.48,26.48,0,0,0,84.21,62a19.38,19.38,0,0,0-2.48-7.17,19.44,19.44,0,0,1,3.33,16.27C82.6,81,77.26,90.37,71.38,99.26l-.51.77-.9-.2C59.58,97.48,49.24,94.44,40.6,89A19.44,19.44,0,0,1,31.76,75.15Z"/><path class="cls-6" d="M65.69,58.1a7.09,7.09,0,0,0,4.17,1.45,8.72,8.72,0,0,0,5-.95,3.22,3.22,0,0,0,1.49-4.08,6.2,6.2,0,0,0-3.16-3.12A6.87,6.87,0,0,0,68.52,51a7.18,7.18,0,0,0-2.39,1.12,4.37,4.37,0,0,0-1.41,2A3.69,3.69,0,0,0,65.69,58.1Z"/><path class="cls-6" d="M77,59.36a1.2,1.2,0,0,0,.63.22,1.37,1.37,0,0,0,.75-.15.47.47,0,0,0,.22-.61.9.9,0,0,0-.47-.47,1.06,1.06,0,0,0-.7-.06,1.19,1.19,0,0,0-.36.17.72.72,0,0,0-.21.31A.55.55,0,0,0,77,59.36Z"/><path class="cls-5" d="M44.67,62.68a4.46,4.46,0,0,0-2.29-1,7.24,7.24,0,0,0-2.61.33,6.84,6.84,0,0,0-3.72,2.77,6.23,6.23,0,0,0-1,4.32,3.2,3.2,0,0,0,3.44,2.65A8.61,8.61,0,0,0,43.17,70a7,7,0,0,0,2.75-3.45A3.68,3.68,0,0,0,44.67,62.68Z"/><path class="cls-5" d="M36.81,73.05a.73.73,0,0,0-.35-.15,1.07,1.07,0,0,0-1,.47.94.94,0,0,0-.16.65.49.49,0,0,0,.52.4,1.26,1.26,0,0,0,.71-.28,1.07,1.07,0,0,0,.42-.52A.55.55,0,0,0,36.81,73.05Z"/><path class="cls-5" d="M59.55,72.75c.32.73,1,1.16,1.43,1s.58-1,.26-1.69-1-1.15-1.43-1S59.23,72,59.55,72.75Z"/><path class="cls-3" d="M60.05,71.86,97.53,54.14l.48,1L60.5,72.89C60.34,72.54,60.19,72.2,60.05,71.86Z"/><path class="cls-3" d="M60.45,73a.14.14,0,0,1-.08-.07l-.45-1a.16.16,0,0,1,.07-.18L97.48,54a.12.12,0,0,1,.1,0,.18.18,0,0,1,.08.07l.48,1a.14.14,0,0,1-.07.18L60.55,73h-.1Zm37-18.69L60.22,71.92l.34.78L97.83,55.09Z"/><path class="cls-3" d="M93.81,51.43s8.47,0,8.09,1.45S96.14,60.05,95.08,59,90.84,51.33,93.81,51.43Z"/><path class="cls-3" d="M95,59.06c-.83-.85-3-5-2.48-6.85a1.19,1.19,0,0,1,1.3-.92c.74,0,7.26.06,8.13,1.19a.5.5,0,0,1,.09.44c-.33,1.26-4.41,5.73-6.24,6.26h0A.76.76,0,0,1,95,59.06Zm-2.21-6.78c-.47,1.74,1.62,5.79,2.4,6.59.1.11.28.12.53.05h0c1.72-.5,5.74-4.88,6.06-6.07a.21.21,0,0,0,0-.2c-.67-.88-5.93-1.08-7.91-1.09a1.41,1.41,0,0,0-.43,0A.85.85,0,0,0,92.78,52.28Z"/><path class="cls-7" d="M96.92,52.37s3.44,0,3.28.59-2.33,2.9-2.76,2.46S95.72,52.33,96.92,52.37Z"/><path class="cls-3" d="M45.77,37.4l-.31.83C48.2,40.82,50.9,43.44,53.7,46a1.88,1.88,0,0,0,1.79.19c2.93-2.57,5.77-5.25,9.25-8.47L59.06,37C57.72,21.68,53.18,16,41.52,14.73c-5.9-.62-13.09,2.31-14.4,6.76,5.95-3.44,11.6-4.81,17.21-.88,4.48,3.15,7.29,10.79,6,16.54Z"/></g></g></g></svg>