<?xml version="1.0" encoding="utf-8"?>
<!-- Generator: Adobe Illustrator 24.2.0, SVG Export Plug-In . SVG Version: 6.00 Build 0)  -->
<svg version="1.1" id="Layer_1" xmlns="http://www.w3.org/2000/svg" xmlns:xlink="http://www.w3.org/1999/xlink" x="0px" y="0px"
	 viewBox="0 0 361 361" style="enable-background:new 0 0 361 361;" xml:space="preserve">
<style type="text/css">
	.st0{fill:#78D2E0;}
	.st1{fill:#D0D0D0;}
	.st2{fill:#FFFFFF;}
	.st3{opacity:0.6;fill:#D0D0D0;enable-background:new    ;}
	.st4{fill:#FF7900;}
	.st5{fill:#FF030F;}
	.st6{fill:#B50A03;}
	.st7{fill:#FF3322;}
	.st8{fill:#D51516;}
	.st9{opacity:0.9;fill:#FFFCEB;enable-background:new    ;}
	.st10{opacity:0.5;fill:#FFFCEB;enable-background:new    ;}
	.st11{enable-background:new    ;}
</style>
<g>
	<g id="Layer_2_1_">
		<g id="Layer_1-2">
			
				<image style="overflow:visible;opacity:0.7;enable-background:new    ;" width="361" height="361" xlink:href="B3389D10AB6A5F88.png" >
			</image>
			<path class="st0" d="M36.3,8.4h275.1c15.1,0,27.4,12.3,27.4,27.4v275.1c0,15.1-12.3,27.4-27.4,27.4H36.3
				c-15.1,0-27.4-12.3-27.4-27.4V35.8C8.9,20.7,21.2,8.4,36.3,8.4z"/>
			<path class="st1" d="M33.9,178.4c0.9,0.4,1.7,0.9,2.5,1.5c-0.4-0.5-0.8-0.9-1.1-1.4c-0.6-0.8-4.5-7.3-1.9-6.9
				c4.3,0.7,8.4,3.2,12,5.6c1.7,1.1,3.2,2.5,4.6,3.9c0.8,0.8,1.5,1.7,2.2,2.7c0-0.6,0.1-1.2,0.3-1.8c0.2-0.6,1.1-3.4,2.2-2.5
				s1.5,2.9,2.1,4.1c1.2,2.2,2.9,4.1,5,5.6c2.1,1.7,4.3,3.2,6.7,4.5c2.6,1.3,5.3,2.3,8,3.2c2.4,0.9,4.8,1.5,7.1,2.4
				c1.9,0.8,3.7,1.9,5.4,3.1l0.2,0.1c2.1,1.3,4,2.9,5.6,4.6c1.8,1.7,3.4,3.7,4.7,5.9c1.2,2.2,2.2,4.5,3.1,6.8
				c2.5,6.2,0.4,13.4-1.7,19.4c-1.5,4.2-3.4,8.2-5.8,11.9c-1.5,2.2-3.1,4.3-5,6.2c-1.8,1.9-3.7,3.8-6.3,4.6
				c-0.3,0.1-0.7,0.1-1.1-0.1c0,0,0,0,0,0c-0.2-0.4-0.4-0.9-0.5-1.4c0.1-0.9,0.5-1.7,1-2.4c0.1-0.3,0.2-0.6,0.3-0.9
				c-0.3,0.4-0.6,0.8-1,1.1c-1.8,2.1-3.9,5-7,4.4c-1.8-0.4-1.5-4.3-1.4-5.4c0.2-1.9,0.6-3.7,1.2-5.4c-0.3,0.4-0.6,0.8-0.9,1.2
				c-0.8,0.9-2.9,3.7-4.4,2.4c-1.2-1-1.2-2.5-1.1-4c0.2-2.3,0.7-4.6,1.4-6.8c-0.8,1.2-1.8,2.4-2.9,3.4c-0.1,0-0.1,0-0.2,0.1
				c-0.3,0.3-0.7,0.5-1.1,0.7c-1.3-0.7-0.9-3.4-0.8-4.6c0.1-1.7,0.6-3.4,1.4-4.9c-2,0.7-4.1,0.8-6.2,0.5c-1.7-0.2-3.3-0.5-4.9-0.9
				c-1.1-0.2-2.1-0.5-3-1.1c-1.3-1.1-0.4-2.5,0.3-3.7c0.7-1.2,1.8-2.2,3.2-2.8c-1.5-0.4-2.9-1.1-4.1-2c-1-0.8-0.6-1.5,0.4-2
				c1.1-0.4,2.2-0.5,3.4-0.4c-1.4-0.5-2.8-1.1-4.2-1.8c-2.3-1.1-4.8-2.8-6.1-5.1c-0.6-0.7-0.8-1.7-0.8-2.6c0.1-0.9,1.9-0.5,2.4-0.4
				c0.3,0,0.7,0.1,1,0.2c-2-1-3.7-2.5-5-4.3c-1-1.4,0.3-1.9,1.5-2c-2.1-1.4-3.9-3.2-5.2-5.4c-0.3-0.5-2.3-4.2-0.8-4.3
				c0.4,0,0.8,0.1,1.2,0.2l-0.4-0.5c-2.1-2.4-3.8-5.1-5-8.1c-0.4-1.1-1.9-4.6-0.1-5.1c0.5-0.1,1.2,0.4,2,1.1c-1.6-2-2.8-4.4-3.4-6.9
				C32.7,181.4,32.1,177.9,33.9,178.4z"/>
			<path class="st2" d="M70,249.4c-0.2,1.3-1.2,6.8,1.9,5.2c1.5-0.8,2.7-2.6,3.7-4l0.2-0.2c0.3-0.3,0.7-0.7,1-1
				c-0.7-1-0.3-2.3-0.1-3.5c0.3-1.8,0.7-3.5,1.3-5.2c-0.9,0.8-1.8,1.6-2.8,2.3c-0.8,0.6-2.2,2.1-3.3,1.7c-0.3-0.2-0.5-0.5-0.6-0.8
				v-0.1C70.8,245.6,70.3,247.5,70,249.4z"/>
			<path class="st2" d="M53.2,229.7c1.2,0.5,2.4,0.9,3.6,1.2c0.3,0.1,0.6,0.1,0.9,0.2l0.5-0.1c-1,0.6-2,1.4-3,2.2
				c-0.2,0.1-0.3,0.3-0.5,0.4s-0.1,0.1-0.2,0.2s-0.5,0.4-0.7,0.6c-0.1,0.1-0.1,0.2-0.1,0.4c-0.3,0.4-0.5,0.9-0.7,1.3
				c-0.7,1.6,0.5,1.7,1.7,2.1c2.2,0.7,4.6,1.1,6.9,1.3c1.8,0.1,3.6-0.2,5.3-0.8c0.5,0,1,0.1,1.5,0.2l-0.5,0.3
				c-1.2,1.9-1.8,4.2-1.8,6.4c-0.2,0.8-0.2,1.7-0.2,2.6c0,0.2,0.3,0.4,0.5,0.3c0.1,0,0.1,0,0.2-0.1c0.9-0.9,1.7-2,2.3-3.1
				c1-1.2,2.1-2.7,2.4-2.9c0.3-2.2,0.8-4.4,1.6-6.5c0.5-1.6,1.2-3.1,2-4.5c-1.7,0.6-3.6,0.8-5.4,0.8c-3.3,0.1-6.5-0.8-9.3-2.4
				c-0.7-0.5-1.3-1-1.8-1.6c-0.5-0.1-1-0.1-1.5-0.1C56.1,228,50.8,228.5,53.2,229.7z"/>
			<path class="st2" d="M33.5,182.1c0.4,4.4,4.5,8.4,7.6,11.2l0,0c-0.9-0.6-1.8-1.1-2.6-1.7c-0.3-0.3-0.6-0.6-0.9-0.9
				c-1.2-1.1-2.8-2.2-3.4-1.4c-1.1,1.5,1.2,5,1.9,6.3c1.1,2,2.4,4,4,5.7c0.4,0.4,0.7,0.8,1.1,1.2l0.3,0.1l2.9,1.6
				c-0.5-0.8-0.9-1.7,0-1.6c0.8,0.2,1.5,0.5,2.2,0.9l1.1,0.6c-0.8-0.4-1.6-0.7-2.4-0.8c-0.2,0-0.5,0.1-0.5,0.4
				c0.1,0.9,0.7,1.7,1.4,2.1c0.2,0.3,0.5,0.6,0.8,0.8c2.9,3.1,7.5,5.1,11.6,6.5c1-0.5,2.3,0.1,3.3,0.2c0.6,0.1,1.3,0.2,1.9,0.3
				c0.9,0.3,1.8,0.6,2.6,0.9c0.2,0.1,0.5,0.2,0.8,0.4l-0.9-0.1c-1.9-0.5-3.9-0.9-5.8-1.2c-0.4-0.1-1,0-1.2,0.4l0,0
				c0,0.1,0,0.2,0,0.3c0,0.1,0,0.1,0,0.2c0.1,0.3,0.3,0.6,0.5,0.8c0.4,0.6,0.8,1,0.4,0.5c1.1,1.2,2.4,2.2,3.9,3
				c4.7,2.9,10.1,2.8,15.2,1.6c-1.7,1.5-4.4,1.8-6.6,1.7c-0.9,0-1.8-0.1-2.7-0.3c-3.1-0.8-6-2.2-8.5-4.1c-0.3-0.2-2.8-2.7-3.2-4
				c-5.2-1.5-9.8-4.5-13.3-8.6c-0.2-0.2-0.3-0.4-0.5-0.7c-1.3-0.6-2.6-1.1-3.9-1.5c-0.3-0.1-0.7-0.3-1-0.4l0,0
				c-0.2,0-0.4,0.2-0.4,0.5c-0.2,0.4-0.1,0.9,0.2,1.3c0.4,1,0.9,2,1.7,2.8c1.5,1.7,3.3,3.1,5.3,4.1c1,0.1,2,0.3,2.9,0.6
				c1.3,0.3,2.6,0.9,3.8,1.6c-1.6-0.5-3.2-0.8-4.8-1.2c-1-0.4-2.1-0.4-3.1,0c-1,0.1-1.6,0.6-0.7,1.6c1.4,1.5,3.1,2.8,5,3.6
				c0.7,0.4,1.3,0.8,1.9,1.2c0.5,0.4,1.1,0.9,1.6,1.3c-0.8-0.3-1.6-0.6-2.5-0.9c-1.1-0.4-2.3-0.6-3.5-0.8c-2.6-0.2-0.1,3,0.7,3.8
				c2.6,2.2,5.6,3.8,8.9,4.7c0.4,0.2,0.8,0.4,1.2,0.7c-0.3-0.5-0.3-0.9,0.3-1.1c1.3-0.5,3.2-0.2,4.6-0.1c1.2,0,2.4,0.1,3.6,0.2
				l0.2,0.1l-1,0.1c-1.9,0.2-3.8,0.1-5.7,0.2c-0.7,0.1-1,0.2-1,0.5c-0.2,0-0.3,0.1-0.2,0.1c0.1,0.2,0.2,0.3,0.3,0.5l0.1,0.1
				c0.1,0.1,0.3,0.3,0.4,0.4h-0.1c1.1,0.9,2.4,1.6,3.8,2c4.2,1.4,9.8,1.6,13.6-0.9c-0.5,1.1-1,2.3-1.5,3.4c-0.6,1.2-1.1,2.5-1.5,3.8
				c-0.9,2.3-1.4,4.7-1.5,7.1c1.1-0.3,2.8-2,3.4-2.5c1.2-0.9,2.3-2,3.3-3.1c0.7-0.8,1.4-1.6,1.9-2.5c1.2-1.2,2.2-2.7,3-4.2
				c-0.7,2.6-2,5-3.8,7c0,0.1,0,0.1,0,0.2c-0.5,1.6-1.4,3.1-1.9,4.8c-0.2,0.9-0.4,1.7-0.6,2.6c-0.1,0.2-0.1,0.5-0.2,0.8
				c-0.2,0.6-0.4,1.1-0.5,1.8c0,0.2,0.2,0.4,0.4,0.4c0.1,0,0.1,0,0.2,0c1.7-0.8,2.9-2.5,4-3.9c1-1.2,1.8-2.4,2.6-3.7
				c-0.7,2-1.8,3.8-3.1,5.4c-0.5,0.6-2.6,3.5-3.8,3.1c-0.6,1.4-1,2.8-1.5,4.2c-0.6,1.9-2.4,9.9,2.2,7.6c1.8-0.9,3.2-2.9,4.5-4.3
				c0.3-0.3,0.5-0.6,0.7-0.9c1.2-1.3,2.5-2.6,3.7-4c-0.6,1.2-1.1,2.5-1.7,3.7c0,0.1,0,0.1,0,0.2c-0.4,0.8-0.8,1.6-1.1,2.4
				c-0.1,0.2-0.8,2.5-0.8,2.5c1.9-0.8,3.7-2,5.1-3.6c3.3-3.2,6.1-6.9,8.3-10.9c1.9-3.3,3.4-6.9,4.5-10.6c1.2-3.5,1.7-7.3,1.5-11
				c-0.2-2.1-0.7-4.1-1.4-6.1c-0.5-1.4-1.1-2.7-1.8-4c-2.7-4.4-6.1-8.4-10.2-11.6c-3.7-2.9-8-3.8-12.3-5.4
				c-3.7-1.2-7.2-2.8-10.6-4.7c-3-1.9-5.8-4.1-8.2-6.7c-0.9-1.1-1.7-2.3-2.3-3.7c-0.3-0.6-0.5-1.2-0.8-1.8c-0.5-1.2-1.3,0.9-1.4,1.2
				c-0.4,1-0.6,2-0.5,3.1l0,0c0,0,0,0,0,0.1c0.1,1.1,0.4,2.1,0.9,3.1c2.6,4.3,7.9,6.8,12.2,9c5.1,2.6,10.4,5.4,15.2,8.5
				c8.9,5.7,14.7,14.8,13.7,25.5c0,0.2-0.3-0.1-0.3-0.2c0.3-6.2-1.6-12.3-5.3-17.2c-3.8-5-9.5-8.1-15-11.1c-2.5-1.3-5-2.7-7.5-4.1
				s-5.4-2.5-7.6-4.3c-3.4-2.6-6.6-5.2-7.3-9.7c0-0.1,0-0.2,0.1-0.1c0-0.1,0-0.1,0-0.2c-3.7-5.3-9.5-9.1-15.5-11.3
				c-0.6-0.2-3.9-1.6-3.3,0c0.6,1.7,1.4,3.3,2.3,4.7c1.5,2.1,3.4,3.9,5.5,5.5c1.5,0.4,2.9,1,4.3,1.9c1.5,0.9,2.9,1.9,4.2,2.9
				c0.1-0.1,0.4,0.3,0.3,0.4L50,189c0,0.1-0.2-0.1-0.2-0.1c-1.9-1.7-4.2-2.9-6.7-3.7c-0.6-0.2-2.5-1.1-1.7,0.4
				c0.6,1.1,1.2,2.1,1.8,3.1c2.6,4,6.2,6.7,9.7,9.8c1.1,0,2.1,0.2,3.1,0.6c1.7,0.7,3.4,1.6,5,2.6l-1.1-0.4c-1-0.4-2-1-3-1.4
				c-0.9-0.5-1.9-0.7-2.9-0.8c-1.2,0.1-0.8,1.1-0.2,1.7l0,0c0.5,0.7,1,1.4,1.5,2c1,1.2,2.2,2.3,3.4,3.3c1.3,1.1,2.8,2.1,4.3,2.9
				c1.1,0.8,2.3,1.6,3.6,2.2c-5.8-1.2-11.6-6.3-14.3-11.4c-0.4-0.7-0.3-1.1,0-1.2c-3-2.1-5.7-4.6-8-7.5c-1.3-1.7-2.5-3.5-3.5-5.4
				c-0.3-0.6-0.8-1.5-0.6-2.2c0,0,0.1-0.1,0.1-0.1l-0.6-0.2c-0.8-0.7-1.6-1.4-2.3-2.2c-0.7-0.5-1.4-0.9-2.2-1.2
				c-0.5-0.4-1.1-0.5-1.7-0.4C33.1,180.3,33.5,181.4,33.5,182.1z"/>
			<path class="st3" d="M32.9,182.3c0.6,2.5,1.8,4.9,3.4,6.9c-0.8-0.7-1.5-1.2-2-1.1c-1.8,0.5-0.3,4,0.1,5.1c1.2,3,2.9,5.7,5,8.1
				l0.4,0.5c-0.4-0.2-0.8-0.2-1.2-0.2c-1.5,0.1,0.6,3.9,0.8,4.3c1.4,2.1,3.1,3.9,5.2,5.4c-1.2,0.1-2.5,0.6-1.5,2
				c1.3,1.8,3,3.2,5,4.3c-0.3-0.1-0.7-0.1-1-0.2c-0.5-0.1-2.2-0.4-2.4,0.4c-0.1,0.9,0.2,1.9,0.8,2.6c1.3,2.3,3.8,3.9,6.1,5.1
				c1.3,0.7,2.7,1.3,4.2,1.8c-1.2-0.1-2.3,0.1-3.4,0.4c-1,0.4-1.4,1.2-0.4,2c1.2,0.9,2.6,1.6,4.1,2c-1.3,0.5-2.5,1.5-3.2,2.7
				c-0.7,1.2-1.5,2.7-0.3,3.7c0.9,0.5,1.9,0.9,3,1.1c1.6,0.4,3.2,0.7,4.9,0.9c2.1,0.3,4.2,0.2,6.2-0.5c-0.9,1.5-1.4,3.2-1.4,4.9
				c0,1.2-0.4,3.8,0.8,4.6c0.4-0.1,0.8-0.4,1.1-0.7c0-0.1,0.1-0.1,0.2-0.1c1.1-1,2-2.1,2.9-3.4c-0.8,2.2-1.2,4.5-1.4,6.8
				c-0.1,1.5-0.1,2.9,1.1,4c1.5,1.3,3.7-1.5,4.4-2.4c0.3-0.4,0.6-0.8,0.9-1.2c-0.6,1.8-1,3.6-1.2,5.5c-0.1,1.1-0.4,5.1,1.4,5.4
				c3.1,0.6,5.2-2.3,7-4.4c0.3-0.4,0.6-0.8,1-1.1c-0.1,0.3-0.2,0.6-0.3,0.9c-0.5,0.7-0.9,1.5-1,2.4c0.1,0.5,0.3,0.9,0.5,1.4
				c0,0,0,0,0,0c0.3,0.2,0.7,0.2,1.1,0.1c2.6-0.8,4.4-2.8,6.3-4.6c1.9-1.9,3.5-4,5-6.2c2.4-3.7,4.4-7.8,5.9-12
				c2.1-6,4.2-13.3,1.7-19.4c-0.1-0.2-0.1-0.3-0.2-0.5c0.3,2.4,0.4,4.8,0.2,7.1c-0.7,7-4.3,13.2-9.3,18.1c-0.5,0.4-1.1-0.2-0.8-0.7
				c3.6-6.4,4.8-13.9,3.2-21.1c-1.7-7.5-6.7-13.3-12.9-17.6c-6.9-4.8-15-7.7-21.9-12.6c-3.8-2.7-7.5-8.4-6.7-13.4
				c-1-0.1-1.7,2.1-1.8,2.7c-0.2,0.6-0.3,1.2-0.3,1.8c-0.7-1-1.4-1.9-2.2-2.7c-0.4-0.5-0.9-0.9-1.4-1.4c1.3,1.9,2.2,4.1,2.5,6.4
				c0.1,0.3-0.1,0.6-0.4,0.6c-0.1,0-0.2,0-0.3,0c-4.1-1.6-7.7-4.4-11.1-7.1c-2.6-2.1-5.2-4.7-6.2-8c-2.1,0,1.5,6.1,2.1,6.9
				c0.3,0.5,0.7,0.9,1.1,1.4c-0.8-0.6-1.6-1.1-2.5-1.5C32.1,177.9,32.7,181.4,32.9,182.3z M43.1,186.3c0-0.3,0.3-0.5,0.6-0.5
				c0,0,0.1,0,0.1,0c7,1.9,12.2,7.4,18,11.5c9,4.9,18.7,9,25.5,16.9c6.5,7.6,7.7,20.9,1,28.9c-0.3,0.4-1,0.2-1-0.3
				c0.5-3.3,0.7-6.6,0.5-9.9c-1.4,3.5-3.3,6.8-5.7,9.7c-0.2,0.2-0.5,0.3-0.7,0.1c-0.2-0.1-0.3-0.4-0.2-0.6c1.6-5.2,3.5-10.2,3-15.4
				c-0.6,1.5-1.2,3-2,4.5c-1.2,2.3-2.6,4.9-4.9,6.1c-0.3,0.1-0.6,0-0.7-0.2c0,0,0-0.1,0-0.1c-0.9-3.3,1.3-7.5,2.1-10.7
				c0.6-2.6,1.5-5.1,2.8-7.4c-5.1,1.6-11.2-0.1-16.2-1.4c-0.3-0.1-0.4-0.4-0.4-0.7c0-0.2,0.2-0.3,0.3-0.3c2.3-0.9,4.9-1,7.3-1.4
				l1-0.1c-1.6-0.7-3.2-1.6-4.7-2.5c-4.1-2.4-8.5-5.6-11.3-9.5c-0.2-0.2-0.2-0.6,0-0.7c0,0,0,0,0,0c0.8-0.7,2.8,0.1,3.7,0.3
				c0.8,0.1,1.5,0.4,2.2,0.6c-1.4-1.8-3.9-2.5-5.9-3.4c-2.6-1-5-2.4-7.2-4C47.5,193.6,43,190.2,43.1,186.3L43.1,186.3z"/>
			<path class="st3" d="M33.9,178.4c0.9,0.4,1.7,0.9,2.5,1.5c-0.4-0.5-0.8-0.9-1.1-1.4c-0.6-0.8-3.9-6.4-2.3-6.9
				c0.6,4.3,3.2,7.9,6.5,10.8c-0.7-0.3-1.4-0.4-2.2-0.3c-2.2,0.3-0.5,3.9,0,4.8c2,3.3,4.2,6.3,6.7,9.2c-1.5-1-3.1-1.7-4.9-1.9
				c-0.3,0-0.5,0.2-0.6,0.5c0,0,0,0.1,0,0.1c0.5,3.6,3,6.9,6,9.3c-1-0.4-2.1-0.5-3.2-0.4c-0.3,0.1-0.5,0.3-0.4,0.6c0,0,0,0,0,0
				c0.5,3,3.9,5.2,6.5,6.4c2,0.9,4.1,1.5,6.2,1.8c-1.6,0.3-3.7-0.7-4.9,0.6c-1.5,1.6,3,4.1,3.8,4.6c2.3,1.2,4.7,2.3,7.2,3.1
				c-0.9-0.1-1.9-0.3-2.8-0.4c-1.6-0.3-3.3-0.7-4.9,0c-0.3,0.1-0.4,0.4-0.2,0.7c0,0,0,0,0,0c1.2,3,5.4,3.4,8.2,4
				c1.4,0.3,2.8,0.6,4.2,0.8c-0.7,0.2-1.3,0.5-1.9,0.8c-0.3,0.1-0.4,0.5-0.2,0.7c0,0,0,0.1,0.1,0.1c1.7,2.4,5.8,2.1,8.4,2
				c1.9,0,3.8-0.3,5.7-0.9c0.1,4.9-14.3,4.1-17.3,4.8c-0.3,0.1-0.5,0.3-0.4,0.6c0,0,0,0,0,0c0.5,2.9,4.4,3.2,6.8,3.2
				c2.4,0.1,4.7-0.5,6.9-1.6c-1.9,2.4-3.8,4.8-4.9,7.9c-0.1,0.3,0.1,0.6,0.3,0.7c0.1,0,0.3,0,0.4,0c1.2-0.7,2.2-1.5,3.2-2.5
				c-0.3,0.8,0,1.8,0.6,2.4c0.6,0.4,1.5-0.2,1.9-0.6c1.1-0.8,2.2-1.6,3.2-2.5c0.6-0.5,1.2-1,1.7-1.6c-0.9,2-1.5,4.1-1.9,6.3
				c-0.2,1.1-0.8,3.2,1.2,2.7c1.8-0.6,3.3-1.7,4.3-3.3c-1,2-2,4-2.8,6.1c-0.5,1.2-2.5,5.7-0.3,6.4s5.4-3.7,6.5-5.1
				c1-1.3,1.9-2.7,2.7-4.1c-0.8,2.7-2.1,5.4-2.6,8.1c0,0.3,0.2,0.5,0.5,0.6c1.8,0.1,3.4-1.3,4.6-2.4c1.8-1.5,3.5-3.2,5-5
				c-0.3,0.5-0.7,1.1-1,1.6c-1.5,2.2-3.1,4.3-5,6.2c-1.8,1.9-3.7,3.8-6.3,4.6c-0.3,0.1-0.7,0.1-1.1-0.1c0,0,0,0,0,0
				c-0.2-0.4-0.4-0.9-0.5-1.4c0.1-0.9,0.5-1.7,1-2.4c0.1-0.3,0.2-0.6,0.3-0.9c-0.3,0.4-0.6,0.8-1,1.1c-1.8,2.1-3.9,5-7,4.4
				c-1.8-0.4-1.5-4.3-1.4-5.4c0.2-1.9,0.6-3.7,1.2-5.4c-0.3,0.4-0.6,0.8-0.9,1.2c-0.8,0.9-2.9,3.7-4.4,2.4c-1.2-1-1.2-2.5-1.1-4
				c0.2-2.3,0.7-4.6,1.4-6.8c-0.8,1.2-1.8,2.4-2.9,3.4c-0.1,0-0.1,0-0.2,0.1c-0.3,0.3-0.7,0.5-1.1,0.7c-1.3-0.7-0.9-3.4-0.8-4.6
				c0.1-1.7,0.6-3.4,1.4-4.9c-2,0.7-4.1,0.8-6.2,0.5c-1.7-0.2-3.3-0.5-4.9-0.9c-1.1-0.2-2.1-0.5-3-1.1c-1.3-1.1-0.4-2.5,0.3-3.7
				c0.7-1.2,1.8-2.2,3.2-2.8c-1.5-0.4-2.9-1.1-4.1-2c-1-0.8-0.6-1.5,0.4-2c1.1-0.4,2.2-0.5,3.4-0.4c-1.4-0.5-2.8-1.1-4.2-1.8
				c-2.3-1.1-4.8-2.8-6.1-5.1c-0.6-0.7-0.8-1.7-0.8-2.6c0.1-0.9,1.9-0.5,2.4-0.4c0.3,0,0.7,0.1,1,0.2c-2-1-3.7-2.5-5-4.3
				c-1-1.4,0.3-1.9,1.5-2c-2.1-1.4-3.9-3.2-5.2-5.4c-0.3-0.5-2.3-4.2-0.8-4.3c0.4,0,0.8,0.1,1.2,0.2l-0.4-0.5
				c-2.1-2.4-3.8-5.1-5-8.1c-0.4-1.1-1.9-4.6-0.1-5.1c0.5-0.1,1.2,0.4,2,1.1c-1.6-2-2.8-4.4-3.4-6.9
				C32.7,181.4,32.1,177.9,33.9,178.4z"/>
			<path class="st1" d="M247.4,86.9c1.6,2,2.7,4.4,3.3,6.9c-0.1-1,0-2,0.4-2.3c1.6-1.1,3.4,2.2,3.9,3.2c1.6,2.8,2.7,5.8,3.2,8.9
				c0,0.2,0.1,0.4,0.1,0.6c0.1-0.4,0.3-0.7,0.5-1c1-1.1,2.7,2.8,2.9,3.3c0.8,2.4,1.2,4.9,1,7.4c0.9-0.9,2-1.6,2.5,0.1
				c0.6,2.2,0.6,4.4,0.2,6.6c0.1-0.3,0.3-0.6,0.5-0.9c0.3-0.4,1-2,1.8-1.6c0.8,0.5,1.3,1.3,1.6,2.2c1,2.4,0.7,5.4,0.2,8
				c-0.3,1.5-0.7,3-1.1,4.4c0.6-1,1.5-1.8,2.5-2.4c1-0.5,1.8-0.3,1.8,0.9c-0.1,1.5-0.4,3-1,4.4c1.2-0.7,2.7-1,4.1-0.8
				c1.4,0.2,3.1,0.4,3.1,2.1c-0.2,1.1-0.5,2.1-1,3c-0.7,1.5-1.4,3-2.3,4.4c-1,1.8-2.5,3.4-4.2,4.6c1.7,0.2,3.3,0.9,4.7,1.9
				c1,0.7,3.3,2,3.1,3.5c-0.4,0.2-0.8,0.4-1.2,0.4c-0.1,0-0.1,0-0.2,0.1c-1.5,0.2-2.9,0.3-4.4,0.2c2.2,0.7,4.3,1.8,6.2,3.1
				c1.2,0.8,2.3,1.8,2.4,3.3c0.1,1.9-3.4,1.9-4.6,2c-0.5,0-1,0-1.5,0c1.8,0.6,3.5,1.4,5,2.4c1,0.6,4.2,2.8,3.4,4.5
				c-1.5,2.8-5,2.6-7.8,2.8c-0.5,0-1,0-1.5,0l0.9,0.3c0.9,0,1.7,0.3,2.4,0.7c0.3,0.4,0.6,0.8,0.8,1.2h0c0,0.4-0.2,0.7-0.6,0.9
				c-2.2,1.5-4.9,1.8-7.5,2.1c-2.7,0.3-5.3,0.4-8,0.1c-4.4-0.4-8.8-1.4-13-2.8c-6-2-13-4.9-16.3-10.7c-1.3-2.2-2.4-4.4-3.4-6.7
				c-0.9-2.3-1.5-4.8-1.8-7.3c-0.4-2.4-0.4-4.9-0.2-7.3c0-0.1,0-0.2,0-0.2c0.1-2.1,0.3-4.1,0.9-6.1c0.7-2.4,1.7-4.7,2.5-7.1
				c1-2.7,1.8-5.5,2.4-8.3c0.4-2.6,0.6-5.3,0.6-8c0.1-2.5-0.4-5.1-1.3-7.4c-0.6-1.2-1.9-2.7-1.9-4.2s2.7-0.5,3.4-0.2
				c0.6,0.2,1.1,0.5,1.6,0.9c-0.4-1.1-0.6-2.2-0.8-3.4c-0.3-2-0.4-4.1-0.2-6.1c0.3-4.3,0.9-9.1,3-12.9c1.2-2.2,4,4.8,4.2,5.8
				c0.2,0.6,0.3,1.1,0.4,1.7c0-1,0.1-1.9,0.4-2.9C244.4,83.6,246.8,86.2,247.4,86.9z"/>
			<path class="st2" d="M271.9,155.1L271.9,155.1c0.3,0.3,0.4,0.7,0.4,1c-0.3,1.1-2.4,1.3-3.4,1.5c-1.2,0.3-2.3,0.6-3.5,0.8
				c1.7,0.6,3.3,1.4,4.9,2.2c1.1,0.5,2.4,1,2.7,2.2l1.5-0.2h0.3c1.6,0,3.8,0.3,5.4-0.4c3.2-1.4-1.8-4.1-2.9-4.7
				C275.5,156.6,273.7,155.8,271.9,155.1z"/>
			<path class="st2" d="M268.4,134.1c-0.3,0.4-0.5,0.8-0.7,1.2c0.1,0.8,0.1,1.6,0.1,2.4c-0.5,3.2-1.8,6.3-3.9,8.8
				c-1.1,1.5-2.4,2.8-3.9,3.8c1.6,0.2,3.2,0.6,4.7,1.2c2.1,0.7,4.2,1.6,6.1,2.8c0.3-0.1,2.1,0,3.7-0.1c1.3,0.2,2.6,0.2,3.9,0.1
				c0.2-0.1,0.4-0.3,0.3-0.5c0-0.1,0-0.1-0.1-0.2c-0.6-0.6-1.4-1.1-2.1-1.5c-1.8-1.4-3.9-2.2-6.2-2.5l-0.5,0.2
				c0.2-0.4,0.5-0.9,0.8-1.3c1.5-1,2.8-2.2,3.9-3.6c1.3-1.9,2.4-4,3.3-6.2c0.5-1.2,1.1-2.2-0.6-2.6c-0.5-0.1-1-0.2-1.5-0.3
				c-0.1-0.1-0.2-0.2-0.4-0.1l-0.9,0.2h-0.3c-0.2,0-0.4,0.1-0.6,0.1c-1.2,0.2-2.4,0.6-3.5,1l0.4-0.3c0.1-0.3,0.3-0.5,0.4-0.8
				c0.5-1.2,0.9-2.4,1.2-3.6C272.6,129.5,268.9,133.4,268.4,134.1z"/>
			<path class="st2" d="M244.8,85.8c-0.5,0.4-0.8,0.9-0.8,1.6c-0.2,0.8-0.3,1.7-0.4,2.5c0.2,1.1,0.3,2.1,0.3,3.2
				c0,0.2-0.1,0.4-0.1,0.6c0,0,0.1,0,0.1,0c0.7,0.2,1.1,1.1,1.4,1.8c0.8,2,1.5,4,2,6.1c0.8,3.6,1.1,7.2,1,10.9
				c0.3-0.1,0.7,0.1,1,0.8c2.3,5.2,2.8,12.9,0.2,18.3c0.3-1.4,0.5-2.8,0.5-4.2c0.3-1.7,0.5-3.4,0.4-5.2c0-1.6-0.2-3.2-0.5-4.7
				c-0.2-0.8-0.4-1.6-0.7-2.4c0,0,0,0,0-0.1c-0.1-0.8-0.7-1.7-1.5-0.9c-0.6,0.8-1,1.7-1.2,2.7c-0.3,1-0.5,2.1-0.8,3.2
				c-0.1,0.4-0.3,0.8-0.4,1.2c0.2-1.9,0.6-3.7,1.1-5.6c0.3-1,0.8-2,1.4-2.9c-0.3-4.6-0.2-9.2-1.8-13.7c-0.4-1.1-0.8-2.3-1.3-3.4
				c-0.7-1.6-1.2,0.5-1.4,1.1c-0.9,2.4-1.3,5-1.2,7.5c0,0,0,0.2-0.1,0.2H242c-0.2,0-0.3-0.4-0.1-0.5c0-1.7,0.1-3.4,0.3-5.1
				c0.2-1.6,0.6-3.1,1.2-4.5c0.1-2.6-0.3-5.2-0.9-7.7c-0.6-1.7-1.4-3.3-2.4-4.8c-0.8-1.5-1.8,2-2,2.6c-2,6.1-2.6,13-0.7,19.1
				l0.1,0.2c0-0.1,0.1-0.1,0.2,0c3.1,3.3,3.2,7.5,3.2,11.7c0,2.9-0.9,5.8-1.3,8.7s-0.9,5.6-1.4,8.4c-1.1,6.1-2.2,12.5-0.6,18.6
				c1.6,6,5.2,11.2,10.3,14.8c0.1,0.1,0.1,0.4,0,0.3c-9.1-5.8-12.7-16-11.6-26.5c0.6-5.8,1.6-11.6,2.7-17.2
				c0.9-4.8,2.2-10.5,0.4-15.2c-0.4-1-1.1-1.9-1.8-2.6h-0.1l0,0c-0.8-0.7-1.7-1.2-2.7-1.5c-0.4-0.1-2.5-0.8-1.9,0.4
				c0.3,0.6,0.6,1.1,0.9,1.7c0.7,1.3,1.2,2.7,1.5,4.1c0.5,3.5,0.6,7,0.2,10.5c-0.6,3.8-1.5,7.6-2.9,11.3c-1.4,4.4-3.3,8.3-3.3,13
				c0,5.2,0.9,10.4,2.8,15.2c0.6,1.4,1.2,2.7,2,3.9c1.1,1.8,2.4,3.4,3.9,4.9c2.8,2.5,6,4.4,9.6,5.6c3.6,1.4,7.3,2.4,11.1,3
				c4.5,0.7,9.1,0.8,13.7,0.2c2.1-0.2,4.2-0.8,6-1.8c0,0-2.2-0.9-2.5-0.9c-0.9-0.2-1.7-0.4-2.6-0.6c0,0-0.1-0.1-0.1-0.1l-4-1
				c1.8-0.1,3.6-0.2,5.4-0.4c0.4,0,0.8,0,1.1-0.1c2-0.1,4.4,0,6.2-0.9c4.6-2.2-2.8-5.6-4.7-6.4c-1.4-0.6-2.8-1-4.2-1.5
				c-0.5,1.1-4,1-4.8,1c-2.1,0.1-4.2-0.2-6.1-0.9c1.5,0.2,3,0.3,4.6,0.2c1.8,0,3.9,0.1,5.6-0.7c0.2-0.1,0.3-0.3,0.2-0.5
				c0-0.1-0.1-0.1-0.1-0.2c-0.5-0.3-1.1-0.5-1.7-0.7c-0.2-0.1-0.5-0.2-0.7-0.4c-0.8-0.4-1.6-0.8-2.4-1.1c-1.6-0.6-3.3-0.9-5-1.5
				c-0.1,0-0.1-0.1-0.1-0.1c-2.7,0.1-5.4-0.4-7.9-1.4c1.7,0.3,3.4,0.4,5.1,0.2c1.1,0.1,2.1,0.1,3.2,0c1.5-0.1,3-0.3,4.5-0.7
				c0.7-0.2,3.1-0.5,4-1.1c-2-1.4-4.2-2.5-6.5-3.2c-1.3-0.5-2.6-0.9-3.9-1.2c-1.2-0.4-2.4-0.6-3.6-0.9c4.4-1.5,7.6-6,9.1-10.1
				c0.5-1.3,0.8-2.8,0.8-4.2l-0.1,0.1c0-0.2,0-0.4,0-0.6c0,0,0-0.1,0-0.1c0-0.2-0.1-0.4-0.1-0.6c0-0.1-0.1,0-0.3,0.1
				c-0.2-0.1-0.5,0-1,0.5c-1.3,1.4-2.3,3-3.7,4.3l-0.8,0.7c0-0.1,0.1-0.1,0.1-0.2c0.7-1,1.4-1.9,2.1-2.9c0.8-1.1,1.7-2.8,2.9-3.6
				c0.5-0.3,0.8,0,1,0.5c0.1-0.5,0.2-0.9,0.2-1.4c1.4-3.1,2-6.5,1.8-9.9c-0.1-1.1-1.1-5-2.5-2.9c-0.6,1-1.2,2.1-1.6,3.2
				c-0.3,0.8-0.6,1.7-0.8,2.5c-0.1-0.7-0.1-1.3,0-2c0-0.8,0.1-1.5,0.2-2.3c0.5-2,0.6-4.1,0.2-6.2c-0.2-1.3-0.9-1.1-1.7-0.4
				c-0.9,0.6-1.6,1.4-1.9,2.4c-0.7,1.5-1.5,3-2,4.5c0.2-1.3,0.5-2.7,1-3.9c0.4-0.9,0.8-1.8,1.4-2.7c0.5-2.2,0.5-4.5,0-6.7
				c-0.2-1.1-0.5-2.1-1.1-3.1c-0.1-0.5-0.5-0.8-0.9-0.9c-0.2-0.2-0.4-0.2-0.6,0c0,0,0,0,0,0h0c-0.1,0.3-0.3,0.7-0.4,1
				c-0.5,1.3-0.9,2.7-1.2,4c0.1,0.3,0.2,0.5,0.2,0.8c1.1,5.3,0.5,10.8-1.5,15.9c0.8,1.1,1.2,4.6,1.2,5c0,3.2-0.7,6.4-2.1,9.3
				c-0.4,0.8-0.9,1.6-1.5,2.3c-1.3,1.7-3.2,3.7-5.4,4.1c4.1-3.3,7.5-7.5,8.2-13c0.3-1.6,0.3-3.3,0-4.9c0.1,0.6,0,0-0.1-0.7
				c0-0.3-0.1-0.6-0.3-0.9c0-0.1-0.1-0.1-0.1-0.1c0-0.1-0.1-0.2-0.2-0.2v0.1c-0.4-0.2-0.9,0.3-1.1,0.6c-1,1.7-1.9,3.5-2.6,5.3
				c-0.2,0.2-0.3,0.5-0.5,0.8c0.1-0.3,0.1-0.6,0.2-0.9c0.3-0.9,0.6-1.8,0.9-2.6c0.3-0.6,0.6-1.1,0.9-1.6c0.6-0.8,0.9-2.3,1.9-2.8
				c1.5-4.1,2.7-9,2.1-13.2c-0.1-0.4-0.1-0.7-0.2-1.1c0.1-0.9-0.1-1.8-0.8-2.4c-0.2-0.1-0.4-0.1-0.6,0.1c0,0,0,0.1,0,0.1
				c-0.4,0.8-0.6,1.6-0.8,2.4c0.1-0.4,0.1-0.8,0.2-1.2c0.1-0.8,0.3-1.6,0.6-2.3c0.5-0.7,1,0.2,1.3,1c0.2-1.1,0.4-2.2,0.5-3.3
				c0-0.1,0-0.2,0-0.3c-0.1-0.5-0.1-1.1-0.2-1.6c-0.4-2.3-1.1-4.5-2-6.6c-0.6-1.3-2-5.3-3.8-5.4c-0.9,0-1,1.9-1,3.5
				c0.1,0.4,0.1,0.8,0.2,1.3c-0.1,1-0.2,2.1-0.3,3.1l0,0c-0.3-4.1-0.9-9.8-4.1-12.9C246.3,86.8,245.6,85.8,244.8,85.8z"/>
			<path class="st3" d="M243.7,85.3c-0.3,0.9-0.4,1.9-0.4,2.9c-0.1-0.6-0.3-1.2-0.4-1.7c-0.3-1-2.8-7.6-4.1-6c2,2.8,2.4,6.4,2.5,9.8
				c0.1,4.4,0,9-1.3,13.2c-0.1,0.3-0.4,0.4-0.7,0.3c-0.1,0-0.2-0.1-0.2-0.2c-1.6-1.7-2.8-3.8-3.5-6c0.1,0.7,0.1,1.3,0.2,1.9
				c0.2,1.1,0.4,2.3,0.8,3.4c-0.5-0.4-1-0.7-1.6-0.9c-0.6-0.2-2.7-1-3.2-0.2c4.4,2.5,6.6,8.8,6.4,13.5c-0.4,8.4-3.1,16.6-3.6,25
				c-0.4,7.5,1,15,5.9,21c4.7,5.7,11.3,9.4,18.5,10.5c0.6,0.1,0.7,1,0.1,1.1c-6.9,0.9-14-0.1-19.9-3.9c-2-1.3-3.9-2.8-5.5-4.5
				l0.2,0.4c3.3,5.8,10.3,8.6,16.3,10.7c4.2,1.5,8.6,2.4,13,2.8c2.7,0.2,5.3,0.2,8-0.1c2.6-0.3,5.3-0.6,7.5-2.1
				c0.3-0.2,0.6-0.5,0.6-0.9h0c-0.2-0.4-0.5-0.8-0.8-1.2c-0.7-0.4-1.6-0.7-2.4-0.7l-0.9-0.3c0.5,0,1,0,1.5,0c2.8-0.1,6.3,0,7.8-2.8
				c0.8-1.6-2.4-3.9-3.4-4.5c-1.6-1-3.3-1.8-5-2.4c0.5,0,1,0,1.5,0c1.2,0,4.7-0.1,4.6-2c-0.1-1.6-1.2-2.5-2.4-3.3
				c-1.9-1.3-4-2.3-6.2-3.1c1.5,0.1,3,0.1,4.4-0.2c0.1,0,0.1-0.1,0.2-0.1c0.4,0,0.8-0.2,1.2-0.4c0.2-1.5-2.1-2.8-3.1-3.5
				c-1.4-1-3-1.6-4.7-1.9c1.8-1.2,3.2-2.7,4.2-4.6c0.9-1.4,1.6-2.9,2.3-4.5c0.5-0.9,0.8-1.9,1-3c0-1.6-1.7-1.9-3.1-2.1
				c-1.4-0.2-2.9,0.1-4.1,0.8c0.6-1.4,0.9-2.9,1-4.4c0-1.2-0.8-1.4-1.8-0.9c-1,0.6-1.8,1.4-2.5,2.4c0.5-1.4,0.9-2.9,1.1-4.4
				c0.5-2.5,0.8-5.5-0.2-8c-0.2-0.9-0.8-1.7-1.6-2.2c-0.8-0.5-1.5,1.2-1.8,1.6c-0.2,0.3-0.3,0.6-0.5,0.9c0.4-2.2,0.3-4.4-0.2-6.6
				c-0.5-1.7-1.7-0.9-2.5-0.1c0.2-2.5-0.2-5-1-7.4c-0.2-0.5-1.9-4.4-2.9-3.3c-0.2,0.3-0.4,0.6-0.5,1c0-0.2-0.1-0.4-0.1-0.6
				c-0.6-3.1-1.7-6.1-3.3-8.8c-0.6-1-2.4-4.3-3.9-3.2c-0.4,0.3-0.5,1.2-0.4,2.3c-0.6-2.5-1.7-4.9-3.3-6.9
				C246.8,86.2,244.4,83.6,243.7,85.3z M247.1,108.8c-0.1,2.7-0.6,5.5-1.3,8.1c-0.6,2.1-1.5,4.5-1,6.8c0.3-0.7,0.6-1.4,0.9-2.1
				s1-2.9,2.1-3.1c0.3,0,0.5,0.1,0.6,0.4c1.4,4.6,1.1,10,0.5,14.8c-0.2,1.8-0.6,3.5-1,5.2l0.7-0.7c1.8-1.6,3.5-3.6,5.6-4.9
				c0.3-0.1,0.6,0,0.7,0.3c0.1,0.1,0.1,0.3,0,0.4c-2.1,4.8-4.5,10.6-8.9,13.6c2.6,0.4,5.1,1.2,7.5,2.3c3,1.3,7.7,2.2,9.8,4.9
				c0.2,0.2,0.1,0.6-0.1,0.8c0,0-0.1,0-0.1,0.1c-2.4,1.1-5.4,0.6-7.9,0.1c-1.6-0.3-3.2-0.7-4.7-1.2c3.8,3.6,8.9,5.2,14,7.2
				c0.3,0.1,0.4,0.5,0.2,0.7c-0.1,0.2-0.3,0.3-0.4,0.3c-3.8,0.1-7.5-0.4-11.1-1.5c2.5,2.2,5.2,4.1,8.1,5.7c0.5,0.3,0.1,0.9-0.3,1
				c-10.4,0.3-20.2-8.8-22.1-18.7c-2-10.2,0.8-20.3,2.5-30.5c0.3-7.1-0.8-14.5,2-21.2c0.1-0.3,0.4-0.4,0.7-0.3c0,0,0.1,0,0.1,0.1
				C247.3,99.8,247.2,105.3,247.1,108.8z"/>
			<path class="st3" d="M243.7,85.3c-0.3,0.9-0.4,1.9-0.4,2.9c-0.1-0.6-0.3-1.2-0.4-1.7c-0.3-0.9-2.6-7.1-4-6.1
				c3,3.1,4.2,7.4,4.5,11.8c0.2-0.7,0.6-1.4,1.1-1.9c1.6-1.5,3.4,2,3.7,3c1.3,3.6,2.4,7.3,3.1,11c0.1-1.8,0.6-3.5,1.5-5
				c0.2-0.2,0.5-0.3,0.8-0.1c0,0,0.1,0.1,0.1,0.1c2.5,2.6,3.6,6.6,3.6,10.5c0.3-1,0.9-2,1.6-2.8c0.2-0.2,0.6-0.2,0.7,0.1
				c2.1,2.3,1.7,6.3,1,9c-0.5,2.1-1.4,4.1-2.4,6c1.2-1,1.8-3.3,3.5-3.5c2.2-0.2,1.4,4.9,1.2,5.8c-0.5,2.6-1.2,5.1-2,7.6
				c0.5-0.8,0.9-1.6,1.4-2.5c0.8-1.4,1.5-3,3-3.8c0.3-0.1,0.6,0,0.7,0.3c1.6,2.8-0.6,6.4-1.9,8.9c-0.6,1.3-1.3,2.6-2,3.8
				c0.6-0.4,1.2-0.7,1.8-1c0.3-0.1,0.6,0,0.7,0.3c0,0,0,0.1,0,0.1c0.9,2.8-1.9,5.8-3.6,7.8c-1.2,1.5-2.6,2.8-4.2,3.9
				c3.8,3.1,12-8.7,14.5-10.6c0.2-0.2,0.6-0.2,0.7,0.1c1.9,2.2-0.2,5.4-1.7,7.3c-1.4,1.9-3.3,3.5-5.5,4.4c3.1,0,6.2-0.1,9.2,1
				c0.3,0.1,0.4,0.4,0.3,0.7c-0.1,0.2-0.2,0.3-0.3,0.3c-1.2,0.5-2.6,0.8-3.9,0.9c0.8,0.4,1.5,1.1,1.5,2s-1.1,1-1.7,1.2
				c-1.3,0.3-2.6,0.8-3.9,1c-0.8,0.2-1.5,0.3-2.3,0.4c2.1,0.6,4.2,1.4,6.2,2.4c1,0.5,3,1.4,1.4,2.6c-1.5,1-3.4,1.5-5.3,1.4
				c2.2,0.4,4.4,0.9,6.5,1.6c1.3,0.4,6.1,1.6,5.2,3.8s-6.3,2-8.1,2c-1.7,0-3.3-0.2-5-0.4c2.6,1,5.5,1.7,8,3c0.2,0.2,0.3,0.5,0.1,0.7
				c-1,1.5-3.1,1.9-4.8,2.1c-2.3,0.5-4.6,0.7-7,0.8c0.6,0.1,1.2,0.2,1.9,0.2c2.7,0.2,5.3,0.2,8-0.1c2.6-0.3,5.3-0.6,7.5-2.1
				c0.3-0.2,0.6-0.5,0.6-0.9h0c-0.2-0.4-0.5-0.8-0.8-1.2c-0.7-0.4-1.6-0.7-2.4-0.7l-0.9-0.3c0.5,0,1,0,1.5,0c2.8-0.1,6.3,0,7.8-2.8
				c0.8-1.6-2.4-3.9-3.4-4.5c-1.6-1-3.3-1.8-5-2.4c0.5,0,1,0,1.5,0c1.2,0,4.7-0.1,4.6-2c-0.1-1.6-1.2-2.5-2.4-3.3
				c-1.9-1.3-4-2.3-6.2-3.1c1.5,0.1,3,0.1,4.4-0.2c0.1,0,0.1-0.1,0.2-0.1c0.4,0,0.8-0.2,1.2-0.4c0.2-1.5-2.1-2.8-3.1-3.5
				c-1.4-1-3-1.6-4.7-1.9c1.8-1.2,3.2-2.7,4.2-4.6c0.9-1.5,1.7-3,2.4-4.6c0.5-0.9,0.8-1.9,1-3c0-1.6-1.7-1.9-3.1-2.1
				c-1.4-0.2-2.9,0.1-4.1,0.8c0.6-1.4,0.9-2.9,1-4.4c0-1.2-0.8-1.4-1.8-0.9c-1,0.6-1.8,1.4-2.5,2.4c0.5-1.4,0.9-2.9,1.1-4.4
				c0.5-2.5,0.8-5.5-0.2-8c-0.2-0.9-0.8-1.7-1.6-2.2c-0.8-0.5-1.5,1.2-1.8,1.6c-0.2,0.3-0.3,0.6-0.5,0.9c0.4-2.2,0.3-4.4-0.2-6.6
				c-0.5-1.7-1.7-0.9-2.5-0.1c0.2-2.5-0.2-5-1-7.4c-0.2-0.5-1.9-4.4-2.9-3.3c-0.2,0.3-0.4,0.6-0.5,1c0-0.2-0.1-0.4-0.1-0.6
				c-0.6-3.1-1.7-6.1-3.3-8.8c-0.6-1-2.4-4.3-3.9-3.2c-0.4,0.3-0.5,1.2-0.4,2.3c-0.6-2.5-1.7-4.9-3.3-6.9
				C246.8,86.2,244.4,83.6,243.7,85.3z"/>
			<path class="st2" d="M160.6,243.3c0.6,1.1,1.1,2.1,1.7,3.2L91.4,280l-1.5-3.2L160.6,243.3z"/>
			<path class="st4" d="M91.1,280.2l-1.5-3.2c0-0.1,0-0.2,0-0.3c0-0.1,0.1-0.2,0.2-0.2l70.7-33.4c0.2-0.1,0.5,0,0.6,0.2
				c0.6,1.1,1.1,2.1,1.7,3.2c0,0.1,0,0.2,0,0.3c0,0.1-0.1,0.2-0.2,0.2l-70.8,33.5h-0.1C91.4,280.4,91.2,280.3,91.1,280.2z
				 M160.5,243.9l-70,33.1l1.2,2.5l70.1-33.1C161.3,245.5,160.9,244.7,160.5,243.9L160.5,243.9z"/>
			<path class="st5" d="M77.3,271.6l16.2,4.9c0,0-6.9,24.8-17.3,21.6s4-14.9,4-14.9s-12.5-0.9-15.6-6.2
				C59.4,268,77.3,271.6,77.3,271.6z"/>
			<path class="st6" d="M76.1,298.6c-2.3-0.7-3.7-1.9-4-3.5c-0.8-4,4.9-9.5,7-11.5c-3.1-0.3-12.2-1.7-14.9-6.4
				c-1-1.7-1.2-3.1-0.8-4.2c0.5-1.1,1.6-1.9,2.8-2.1c4-1.2,10.9,0.2,11.2,0.3l16.2,4.9c0.2,0.1,0.3,0.3,0.3,0.5
				c-0.2,0.8-5.5,19.5-14,22l0,0C78.7,299,77.3,299,76.1,298.6z M77.2,272c-0.1,0-6.9-1.4-10.8-0.3c-0.9,0.2-1.8,0.8-2.2,1.6
				c-0.3,0.8-0.1,2,0.7,3.5c3,5.1,15.2,6,15.3,6c0.2,0,0.3,0.1,0.4,0.3c0,0.2,0,0.3-0.1,0.5c-0.1,0.1-8.4,7-7.5,11.3
				c0.3,1.3,1.4,2.3,3.4,2.9c1.1,0.3,2.2,0.3,3.3,0l0,0c7.4-2.1,12.5-18.2,13.3-21L77.2,272z"/>
			<path class="st7" d="M117,195.7c15.8-9.8,35.3-11.6,52.6-4.7c7.7-16.9,23-29.2,41.2-33c40.2-8.6,64.7,33.3,55.9,68.6
				c-7.9,31.8-25,61.8-43.8,90.3c-0.5,0.8-1.1,1.6-1.6,2.5l-2.9-0.6c-33.3-7.5-66.4-17.3-94.2-34.8C93.4,264.5,82.1,217.3,117,195.7
				z"/>
			<path class="st8" d="M221,320.1l-2.9-0.6c-54-12.2-78.8-25-94.4-34.9c-17.7-11.2-29.2-31.3-29.1-51.2c0.1-16.1,7.9-29.8,22-38.5
				c15.7-9.9,35.2-11.7,52.6-5.1c7.3-15.4,20.8-26.9,37.1-31.6c1.4-0.4,2.9-0.8,4.3-1.1c16.2-3.5,31.3,1,42.5,12.6
				c13.8,14.3,19.5,36.7,14.4,57.1c-4.4,17.9-13.4,44.4-44,90.5c-0.5,0.8-1.1,1.6-1.6,2.5c-0.1,0.2-0.3,0.3-0.5,0.4
				C221.3,320.2,221.1,320.2,221,320.1z M170.4,191.3c-0.2,0.4-0.7,0.6-1.1,0.4c-17-6.8-36.2-5.1-51.8,4.7
				c-13.6,8.4-21.1,21.6-21.1,37.1c-0.1,19,11.3,38.9,28.3,49.7c15.5,9.8,40.1,22.5,93.9,34.6l2.3,0.5c0.4-0.6,0.9-1.3,1.3-2
				c30.4-46,39.3-72.2,43.7-90c4.8-19.5-0.8-41.8-14-55.4c-10.8-11.1-25.3-15.4-40.9-12.1c-1.4,0.3-2.8,0.6-4.2,1
				C190.6,164.5,177.3,176,170.4,191.3z"/>
			<path class="st5" d="M95.8,239.6c3.7,14.3,12,27,23.6,36.1c18.6,14.4,43.7,20,66.8,18.5c11.8-0.8,23.8-3.4,34.3-9.1
				c10.1-5.6,18.9-13.2,25.7-22.5c6.9-9.2,12.9-19.5,15.9-30.6c2.9-11.3,3.6-23,1.8-34.5c-1.1-8.1-3.8-15.9-8-23
				c10.8,13.9,15.2,33.9,10.7,52.2c-7.9,31.8-25,61.8-43.8,90.3c-0.5,0.8-1.1,1.6-1.6,2.5l-2.9-0.6c-33.3-7.5-66.4-17.3-94.2-34.8
				C108.5,274,97.8,256.8,95.8,239.6z"/>
			<path class="st9" d="M204.6,184.9c3.3,3.1,9,4.4,13.4,4.6c5.2,0.3,11.3-0.2,15.9-3.1s7.2-7.9,4.8-13.1c-2-4.5-5.6-8-10.1-10
				c-4.8-1.9-9.8-2.6-14.8-1.1c-2.8,0.7-5.3,1.9-7.6,3.6c-2.1,1.7-3.7,4-4.5,6.6C200,176.8,201.2,181.7,204.6,184.9z"/>
			<path class="st9" d="M241,188.9c0.6,0.4,1.3,0.7,2,0.7c0.8,0.1,1.7-0.1,2.4-0.5c0.7-0.4,1.1-1.2,0.7-2c-0.3-0.7-0.9-1.2-1.5-1.5
				c-0.7-0.3-1.5-0.4-2.2-0.2c-0.4,0.1-0.8,0.3-1.2,0.5c-0.3,0.3-0.6,0.6-0.7,1C240.3,187.7,240.5,188.5,241,188.9z"/>
			<path class="st5" d="M137.2,199.6c-2.1-1.7-4.6-2.8-7.3-3.1c-2.8-0.2-5.7,0.2-8.4,1.1c-5,1.4-8.9,4.7-11.9,8.9
				c-2.7,4.1-3.9,9-3.2,13.9c0.7,5.6,5.8,8.5,11,8.5s10.8-2.8,15-5.9c3.6-2.6,7.7-6.6,8.8-11C142.4,207.4,140.9,202.5,137.2,199.6z"
				/>
			<path class="st5" d="M112,232.8c-0.3-0.3-0.7-0.4-1.1-0.5c-1.2-0.1-2.4,0.5-3.1,1.5c-0.4,0.6-0.6,1.4-0.5,2.1
				c0.1,0.8,0.9,1.4,1.7,1.3c0.8-0.1,1.6-0.4,2.3-0.9c0.6-0.4,1.1-1,1.3-1.7C112.8,234,112.5,233.3,112,232.8z"/>
			<path class="st5" d="M184.9,231.9c1,2.3,3.1,3.7,4.6,3s1.9-3.1,0.8-5.4s-3.1-3.7-4.6-3S183.9,229.6,184.9,231.9z"/>
			<path class="st2" d="M186.5,229l120.2-56.8l1.5,3.2l-120.3,56.8C187.5,231.2,187,230.1,186.5,229z"/>
			<path class="st4" d="M187.8,232.7c-0.1,0-0.2-0.1-0.2-0.2c-0.5-1.1-1-2.2-1.4-3.3c-0.1-0.2,0-0.5,0.2-0.6l120.1-56.8
				c0.1,0,0.2,0,0.3,0c0.1,0,0.2,0.1,0.2,0.2l1.5,3.2c0.1,0.2,0,0.5-0.2,0.6c0,0,0,0,0,0l-120.3,56.8h-0.1
				C188,232.7,187.9,232.7,187.8,232.7z M306.5,172.8l-119.4,56.4c0.4,0.8,0.7,1.7,1.1,2.5l119.5-56.5L306.5,172.8z"/>
			<path class="st5" d="M294.7,163.5c0,0,27.1,0.1,25.9,4.7s-18.5,23-21.9,19.5S285.2,163.2,294.7,163.5z"/>
			<path class="st6" d="M298.5,188c-2.6-2.7-9.5-16-7.9-22c0.4-1.9,2.2-3.2,4.2-2.9c2.4,0,23.2,0.2,26,3.8c0.3,0.4,0.4,0.9,0.3,1.4
				c-1.1,4.1-14.1,18.4-20,20.1l0,0C300.2,188.7,299.2,188.6,298.5,188z M291.4,166.3c-1.5,5.6,5.2,18.6,7.7,21.1
				c0.3,0.3,0.9,0.4,1.7,0.2l0,0c5.5-1.6,18.4-15.6,19.4-19.5c0.1-0.2,0-0.5-0.1-0.6c-2.1-2.8-19-3.4-25.4-3.5c-0.5,0-0.9,0-1.4,0.1
				C292.4,164.4,291.6,165.2,291.4,166.3L291.4,166.3z"/>
			<path class="st10" d="M304.7,166.5c0,0,11,0,10.5,1.9s-7.5,9.3-8.9,7.9S300.8,166.4,304.7,166.5z"/>
			<g class="st11">
				<path class="st2" d="M29.2,37.7c1.7-0.3,4.1-0.5,7.4-0.5c3.4,0,5.8,0.6,7.4,1.9c1.5,1.2,2.6,3.2,2.6,5.6c0,2.4-0.8,4.4-2.2,5.7
					c-1.9,1.8-4.6,2.5-7.8,2.5c-0.7,0-1.4,0-1.9-0.1v8.6h-5.4V37.7z M34.6,48.7c0.5,0.1,1,0.1,1.8,0.1c2.9,0,4.7-1.5,4.7-3.9
					c0-2.2-1.5-3.5-4.3-3.5c-1.1,0-1.9,0.1-2.3,0.2V48.7z"/>
				<path class="st2" d="M53.5,55.3l-1.7,6.2h-5.7l7.4-24.2h7.2l7.5,24.2h-5.9l-1.9-6.2H53.5z M59.6,51.2l-1.5-5.1
					c-0.4-1.4-0.9-3.2-1.2-4.7h-0.1c-0.4,1.4-0.7,3.3-1.1,4.7l-1.4,5.1H59.6z"/>
				<path class="st2" d="M71.4,61.5V37.4h6.4l5,8.9c1.4,2.5,2.9,5.6,3.9,8.3h0.1c-0.4-3.2-0.5-6.5-0.5-10.1v-7.1h5v24.2h-5.7
					l-5.2-9.3c-1.4-2.6-3-5.7-4.2-8.5l-0.1,0c0.1,3.2,0.2,6.6,0.2,10.5v7.3H71.4z"/>
				<path class="st2" d="M101.6,37.4v24.2h-5.5V37.4H101.6z"/>
				<path class="st2" d="M120.7,51.3h-8.9V57h9.9v4.5h-15.4V37.4h14.9v4.5h-9.4v5h8.9V51.3z"/>
				<path class="st2" d="M125.5,37.7c1.8-0.3,4.4-0.5,7.3-0.5c3.6,0,6.1,0.5,7.8,1.9c1.4,1.1,2.2,2.8,2.2,5.1c0,3.1-2.2,5.2-4.3,6
					v0.1c1.7,0.7,2.6,2.3,3.2,4.5c0.8,2.7,1.5,5.9,2,6.8h-5.6c-0.4-0.7-1-2.7-1.7-5.6c-0.6-3-1.7-3.8-3.9-3.9h-1.6v9.5h-5.4V37.7z
					 M130.9,48.1h2.2c2.7,0,4.3-1.4,4.3-3.5c0-2.2-1.5-3.3-4-3.4c-1.3,0-2.1,0.1-2.5,0.2V48.1z"/>
				<path class="st2" d="M154,37.7c2-0.3,4.6-0.5,7.4-0.5c4.6,0,7.6,0.8,9.9,2.6c2.5,1.9,4.1,4.8,4.1,9.1c0,4.6-1.7,7.8-4,9.8
					c-2.5,2.1-6.4,3.1-11.1,3.1c-2.8,0-4.8-0.2-6.2-0.4V37.7z M159.5,57.4c0.5,0.1,1.2,0.1,1.9,0.1c4.9,0,8.2-2.7,8.2-8.5
					c0-5-2.9-7.7-7.6-7.7c-1.2,0-2,0.1-2.5,0.2V57.4z"/>
				<path class="st2" d="M185.3,37c-1.1,3.5-2.7,7-4.3,9.7l-3.3,0.3c1.1-3,2-6.5,2.5-9.7L185.3,37z"/>
				<path class="st2" d="M191,55.3l-1.7,6.2h-5.7l7.4-24.2h7.2l7.5,24.2h-5.9l-1.9-6.2H191z M197.1,51.2l-1.5-5.1
					c-0.4-1.4-0.9-3.2-1.2-4.7h-0.1c-0.4,1.4-0.7,3.3-1.1,4.7l-1.4,5.1H197.1z"/>
				<path class="st2" d="M229.3,52.3c-0.1-2.9-0.2-6.4-0.2-9.9H229c-0.8,3.1-1.8,6.5-2.7,9.4l-2.9,9.4h-4.3l-2.6-9.4
					c-0.8-2.8-1.6-6.3-2.2-9.4h-0.1c-0.1,3.3-0.3,7-0.4,10l-0.4,9.2h-5.1l1.5-24.2h7.3l2.4,8.1c0.8,2.8,1.5,5.8,2,8.6h0.1
					c0.7-2.8,1.5-6,2.3-8.7l2.6-8h7.1l1.3,24.2h-5.3L229.3,52.3z"/>
				<path class="st2" d="M261.3,49.2c0,7.9-4.8,12.7-11.9,12.7c-7.2,0-11.4-5.4-11.4-12.3c0-7.2,4.6-12.7,11.8-12.7
					C257.3,37,261.3,42.5,261.3,49.2z M243.9,49.5c0,4.7,2.2,8.1,5.9,8.1c3.7,0,5.8-3.5,5.8-8.2c0-4.3-2.1-8.1-5.8-8.1
					C246,41.3,243.9,44.8,243.9,49.5z"/>
				<path class="st2" d="M270.3,37.4v13.9c0,4.2,1.6,6.3,4.4,6.3c2.9,0,4.4-2,4.4-6.3V37.4h5.4v13.5c0,7.5-3.8,11-10.1,11
					c-6.1,0-9.7-3.4-9.7-11.1V37.4H270.3z"/>
				<path class="st2" d="M289.3,37.7c1.8-0.3,4.4-0.5,7.3-0.5c3.6,0,6.1,0.5,7.8,1.9c1.4,1.1,2.2,2.8,2.2,5.1c0,3.1-2.2,5.2-4.3,6
					v0.1c1.7,0.7,2.6,2.3,3.2,4.5c0.8,2.7,1.5,5.9,2,6.8H302c-0.4-0.7-1-2.7-1.7-5.6c-0.6-3-1.7-3.8-3.9-3.9h-1.6v9.5h-5.4V37.7z
					 M294.8,48.1h2.2c2.7,0,4.3-1.4,4.3-3.5c0-2.2-1.5-3.3-4-3.4c-1.3,0-2.1,0.1-2.5,0.2V48.1z"/>
			</g>
			<path class="st2" d="M123.4,146.8c-0.3,0.9-0.7,1.8-1,2.7c8.9,8.4,17.7,16.9,26.8,25.1c1.2,1.1,4.8,1.5,5.8,0.6
				c9.6-8.4,18.8-17.1,30.1-27.6l-18.5-2.1c-4.4-50-19.1-68.6-57.1-72.6c-19.2-2-42.6,7.5-46.9,22c19.4-11.2,37.8-15.7,56-2.9
				c14.6,10.2,23.7,35.1,19.6,53.8L123.4,146.8z"/>
		</g>
	</g>
</g>
</svg>
