<svg xmlns="http://www.w3.org/2000/svg" viewBox="0 0 68.95 68.95"><defs><style>.cls-1{fill:#fdd020;}.cls-2{fill:none;stroke:#403408;stroke-linecap:round;stroke-miterlimit:10;stroke-width:4px;}.cls-3{fill:#ff5a58;}</style></defs><g id="Layer_2" data-name="Layer 2"><g id="Layer_1-2" data-name="Layer 1"><path class="cls-1" d="M68.94,35.55A34.48,34.48,0,1,1,35.55,0,34.49,34.49,0,0,1,68.94,35.55Z"/><path class="cls-2" d="M50,39.08s-3.28,5-15.59,5S19,39.12,19,39.12"/><path class="cls-3" d="M46.3,19.79a3.63,3.63,0,0,1,4.4,1.45,3.63,3.63,0,0,1,4.45-1.3c2.15.94,2.57,3.2,1.63,5.35-.68,1.55-3.63,4.45-5.23,5.94a1.45,1.45,0,0,1-2,0c-1.55-1.55-4.41-4.53-5-6.11C43.63,22.91,44.12,20.66,46.3,19.79Z"/><path class="cls-3" d="M13.91,19.79a3.63,3.63,0,0,1,4.4,1.45,3.63,3.63,0,0,1,4.45-1.3c2.15.94,2.57,3.2,1.63,5.35-.68,1.55-3.63,4.45-5.23,5.94a1.45,1.45,0,0,1-2,0c-1.55-1.55-4.41-4.53-5-6.11C11.24,22.91,11.73,20.66,13.91,19.79Z"/></g></g></svg>