<svg xmlns="http://www.w3.org/2000/svg" viewBox="0 0 68.95 68.95"><defs><style>.cls-1{fill:#fdd020;}.cls-2{fill:#403408;}.cls-3{fill:none;stroke:#403408;stroke-linecap:round;stroke-miterlimit:10;stroke-width:4px;}</style></defs><g id="Layer_2" data-name="Layer 2"><g id="Layer_1-2" data-name="Layer 1"><path class="cls-1" d="M69,34.48A34.48,34.48,0,1,1,34.48,0,34.47,34.47,0,0,1,69,34.48Z"/><path class="cls-2" d="M18.78,35.88h0a2.5,2.5,0,0,1-2.5-2.5v-6a2.51,2.51,0,0,1,2.5-2.51h0a2.52,2.52,0,0,1,2.51,2.51v6A2.51,2.51,0,0,1,18.78,35.88Z"/><path class="cls-2" d="M50.17,35.88h0a2.5,2.5,0,0,1-2.5-2.5v-6a2.51,2.51,0,0,1,2.5-2.51h0a2.52,2.52,0,0,1,2.51,2.51v6A2.51,2.51,0,0,1,50.17,35.88Z"/><path class="cls-3" d="M14.92,18.61s4.94,2,6.7-2.39"/><path class="cls-3" d="M53.55,18.61s-4.94,2-6.7-2.39"/><path class="cls-2" d="M46.79,53a.8.8,0,0,0,1.36-.74v0c-1.08-3.59-4.68-12.64-13.62-12.64S21.92,48.73,20.81,52.35v0a.8.8,0,0,0,1.36.74,19.77,19.77,0,0,1,12.32-4.94A19.81,19.81,0,0,1,46.79,53Z"/></g></g></svg>