<svg xmlns="http://www.w3.org/2000/svg" xmlns:xlink="http://www.w3.org/1999/xlink" viewBox="0 0 68.95 68.95"><defs><style>.cls-1,.cls-6{fill:none;}.cls-2{fill:#fdd020;}.cls-3{fill:#403408;}.cls-4{clip-path:url(#clip-path);}.cls-5{fill:#ff5a58;}.cls-6{stroke:#403408;stroke-linecap:round;stroke-miterlimit:10;stroke-width:4px;}.cls-7{fill:#fd7588;opacity:0.6;}</style><clipPath id="clip-path"><path class="cls-1" d="M22,39.61c-.54,0-.92.76-.71,1.45C22.41,44.66,26,53.7,34.94,53.7S47.56,44.59,48.67,41c.21-.7-.17-1.46-.72-1.46Z"/></clipPath></defs><g id="Layer_2" data-name="Layer 2"><g id="Layer_1-2" data-name="Layer 1"><path class="cls-2" d="M69,34.48A34.48,34.48,0,1,1,34.48,0,34.47,34.47,0,0,1,69,34.48Z"/><path class="cls-3" d="M22,39.61c-.54,0-.92.76-.71,1.45C22.41,44.66,26,53.7,34.94,53.7S47.56,44.59,48.67,41c.21-.7-.17-1.46-.72-1.46Z"/><g class="cls-4"><ellipse class="cls-5" cx="34.8" cy="53.72" rx="9.73" ry="7.2"/></g><path class="cls-6" d="M45.2,31.85s-.06-5.34,4.7-5.34,4.65,5.3,4.65,5.3"/><path class="cls-6" d="M14.4,31.85s-.06-5.34,4.69-5.34,4.66,5.3,4.66,5.3"/><circle class="cls-7" cx="10.34" cy="39.66" r="5.02"/><circle class="cls-7" cx="58.62" cy="39.66" r="5.02"/></g></g></svg>