<svg xmlns="http://www.w3.org/2000/svg" viewBox="0 0 68.95 68.95"><defs><style>.cls-1{fill:#fdd020;}.cls-2{fill:#403408;}.cls-3{fill:none;stroke:#403408;stroke-linecap:round;stroke-miterlimit:10;stroke-width:4px;}</style></defs><g id="Layer_2" data-name="Layer 2"><g id="Layer_1-2" data-name="Layer 1"><circle class="cls-1" cx="34.48" cy="34.48" r="34.48" transform="translate(-14.28 34.48) rotate(-45)"/><path class="cls-2" d="M18.78,35h0a2.51,2.51,0,0,1-2.5-2.51v-6a2.5,2.5,0,0,1,2.5-2.5h0a2.51,2.51,0,0,1,2.51,2.5v6A2.52,2.52,0,0,1,18.78,35Z"/><path class="cls-2" d="M50.17,35h0a2.51,2.51,0,0,1-2.5-2.51v-6a2.5,2.5,0,0,1,2.5-2.5h0a2.51,2.51,0,0,1,2.51,2.5v6A2.52,2.52,0,0,1,50.17,35Z"/><path class="cls-3" d="M47,43.54s-2.61,9.14-12.41,9.14-12.3-9.07-12.3-9.07"/></g></g></svg>