<svg xmlns="http://www.w3.org/2000/svg" viewBox="0 0 196.65 166.5"><defs><style>.cls-1{fill:#73b4d8;}</style></defs><g id="Layer_2" data-name="Layer 2"><g id="Layer_1-2" data-name="Layer 1"><path class="cls-1" d="M0,13.58V152.92A13.58,13.58,0,0,0,13.58,166.5H183.07a13.58,13.58,0,0,0,13.58-13.58V13.58A13.58,13.58,0,0,0,183.07,0H13.58A13.58,13.58,0,0,0,0,13.58ZM98.16,157.84a70.61,70.61,0,1,1,70.78-70.36A70.64,70.64,0,0,1,98.16,157.84Z"/><path class="cls-1" d="M117.46,118.19a2.43,2.43,0,0,1-2-2.59,21.74,21.74,0,0,1,1.7-8.22c1.34-3.64,2.39-7.39,3.58-11.09a4.24,4.24,0,0,1,.5-1.22c2.81-3.94,4-8.46,4.57-13.14a30.32,30.32,0,0,0-.11-5.71c-.11-1.79-.61-3.57-.55-5.33a67.28,67.28,0,0,1,.79-8.27,23.74,23.74,0,0,0-12.52-25.07c-7.37-3.8-15.26-4-23.16-2.48-12.48,2.46-21,13.61-19.76,25.57.62,5.88,1.54,11.63.35,17.64-.58,2.92.37,6.3,1.24,9.3,1.57,5.36,4.78,10.16,5.74,15.78a6.19,6.19,0,0,0,.64,1.74c1.76,3.45,1.86,7.17,1.82,10.92a2.11,2.11,0,0,1-1.8,2.23c-5.38,1.7-10.75,3.46-16.08,5.32-4.55,1.6-9,3.37-13.64,5.09,25.55,30.83,73.24,31.13,99.07.05-.61-.26-1.06-.5-1.53-.66C136.69,124.74,127.1,121.4,117.46,118.19Z"/></g></g></svg>